<svg width="90" height="90" viewBox="0 0 90 90" fill="none" xmlns="http://www.w3.org/2000/svg">
<path fill-rule="evenodd" clip-rule="evenodd" d="M37.7264 13.005L37.523 13.0049C36.2527 13.0043 35.2937 13.0039 34.3689 13.2259C33.5531 13.4218 32.7732 13.7448 32.0579 14.1831C31.247 14.6801 30.5692 15.3585 29.6714 16.2572L29.5275 16.4011L27.1344 18.7942C26.5719 19.3567 26.4043 19.5196 26.2367 19.6511C25.6607 20.103 24.9717 20.3883 24.2448 20.4761C24.0333 20.5017 23.7997 20.505 23.0042 20.505L22.7095 20.505C21.1459 20.5046 19.9456 20.5043 18.9282 20.6068L22.8164 24.495C22.878 24.495 22.9406 24.495 23.0042 24.495L23.1079 24.495C23.7554 24.4952 24.2432 24.4953 24.7232 24.4373C26.1742 24.2621 27.5495 23.6925 28.6995 22.7903C29.0798 22.4919 29.4247 22.1469 29.8824 21.6889L29.9558 21.6155L32.3489 19.2225C33.4537 18.1176 33.7853 17.8042 34.1427 17.5852C34.501 17.3656 34.8917 17.2038 35.3003 17.1057C35.7078 17.0078 36.1639 16.995 37.7264 16.995H52.2735C53.836 16.995 54.2921 17.0078 54.6996 17.1057C55.1083 17.2038 55.499 17.3656 55.8573 17.5852C56.2146 17.8042 56.5462 18.1176 57.6511 19.2225L60.0442 21.6155L60.1174 21.6888L60.1175 21.6889C60.5752 22.1469 60.9201 22.4919 61.3005 22.7903C62.4504 23.6925 63.8257 24.2621 65.2768 24.4373C65.7567 24.4953 66.2445 24.4952 66.892 24.495L66.9958 24.495C69.6741 24.495 70.6549 24.5095 71.4174 24.6964C73.9528 25.3177 75.9323 27.2972 76.5536 29.8325C76.7405 30.5951 76.755 31.5759 76.755 34.2542V56.85C76.755 59.4032 76.7534 61.198 76.639 62.5987C76.5264 63.9761 76.3148 64.7957 75.9915 65.4302C75.3199 66.7483 74.2483 67.8199 72.9302 68.4915C72.2957 68.8148 71.4761 69.0265 70.0987 69.139C69.3752 69.1981 68.5466 69.2271 67.5627 69.2413L71.342 73.0207C72.5863 72.861 73.7005 72.5771 74.7416 72.0466C76.8104 70.9925 78.4925 69.3105 79.5466 67.2416C80.2042 65.9509 80.483 64.5478 80.6157 62.9236C80.745 61.3415 80.745 59.3836 80.745 56.9368V56.9367V56.9365V56.9363V56.85V34.2542L80.745 33.9596V33.9595C80.7456 31.6826 80.7459 30.1763 80.4289 28.8828C79.4536 24.9034 76.3466 21.7963 72.3672 20.8211C71.0737 20.504 69.5673 20.5044 67.2905 20.505L66.9958 20.505C66.2003 20.505 65.9666 20.5017 65.7551 20.4761C65.0282 20.3883 64.3393 20.103 63.7632 19.6511C63.5956 19.5196 63.428 19.3567 62.8655 18.7942L60.4724 16.4011L60.3286 16.2572C59.4308 15.3585 58.753 14.6801 57.9421 14.1831C57.2267 13.7448 56.4469 13.4218 55.6311 13.2259C54.7063 13.0039 53.7473 13.0043 52.477 13.0049L52.2735 13.005H37.7264ZM65.9224 73.2438L61.9337 69.255H25.65C23.0968 69.255 21.3019 69.2535 19.9013 69.139C18.5239 69.0265 17.7043 68.8148 17.0698 68.4915C15.7517 67.8199 14.6801 66.7483 14.0085 65.4302C13.6852 64.7957 13.4735 63.9761 13.361 62.5987C13.2465 61.198 13.245 59.4032 13.245 56.85V34.2542C13.245 31.5759 13.2594 30.5951 13.4463 29.8325C13.9907 27.6114 15.5774 25.8169 17.6671 24.9884L14.6917 22.0131C12.1639 23.4944 10.2893 25.952 9.57102 28.8828C9.254 30.1763 9.25437 31.6826 9.25493 33.9595L9.25498 34.2542V56.85L9.25498 56.9365C9.25496 59.3834 9.25494 61.3414 9.38422 62.9236C9.51692 64.5478 9.79571 65.9509 10.4534 67.2416C11.5075 69.3105 13.1895 70.9925 15.2584 72.0466C16.5491 72.7043 17.9522 72.9831 19.5763 73.1158C21.1586 73.245 23.1166 73.245 25.5635 73.245H25.65H64.35H64.4365C64.9533 73.245 65.4482 73.245 65.9224 73.2438ZM30.9094 38.2307C29.6555 40.5184 28.9425 43.1447 28.9425 45.9375C28.9425 54.8058 36.1317 61.995 45 61.995C47.7928 61.995 50.4191 61.282 52.7068 60.0281L49.724 57.0453C48.2731 57.6631 46.6765 58.005 45 58.005C38.3353 58.005 32.9325 52.6022 32.9325 45.9375C32.9325 44.261 33.2743 42.6644 33.8922 41.2135L30.9094 38.2307ZM53.1544 54.8331C55.5596 52.6271 57.0675 49.4584 57.0675 45.9375C57.0675 39.2728 51.6647 33.87 45 33.87C41.4791 33.87 38.3104 35.3779 36.1044 37.7831L33.2811 34.9597C36.2109 31.8334 40.3773 29.88 45 29.88C53.8683 29.88 61.0575 37.0692 61.0575 45.9375C61.0575 50.5602 59.1041 54.7266 55.9778 57.6564L53.1544 54.8331ZM71.25 33.75C71.25 35.8211 69.571 37.5 67.5 37.5C65.4289 37.5 63.75 35.8211 63.75 33.75C63.75 31.6789 65.4289 30 67.5 30C69.571 30 71.25 31.6789 71.25 33.75Z" fill="white"/>
<path d="M15 15L75 75" stroke="white" stroke-width="3.99" stroke-linecap="round" stroke-linejoin="round"/>
</svg>
