<svg width="39" height="38" viewBox="0 0 39 38" fill="none" xmlns="http://www.w3.org/2000/svg">
<path fill-rule="evenodd" clip-rule="evenodd" d="M0.490471 2.70704C0 3.66965 0 4.92976 0 7.45V9.25H39V7.45C39 4.92976 39 3.66965 38.5095 2.70704C38.0781 1.86031 37.3897 1.1719 36.543 0.740471C35.5804 0.25 34.3202 0.25 31.8 0.25H7.2C4.67976 0.25 3.41965 0.25 2.45704 0.740471C1.61031 1.1719 0.921901 1.86031 0.490471 2.70704ZM1.5 10.75H37.5V30.55C37.5 33.0702 37.5 34.3304 37.0095 35.293C36.5781 36.1397 35.8897 36.8281 35.043 37.2595C34.0804 37.75 32.8202 37.75 30.3 37.75H8.7C6.17976 37.75 4.91965 37.75 3.95704 37.2595C3.11031 36.8281 2.4219 36.1397 1.99047 35.293C1.5 34.3304 1.5 33.0702 1.5 30.55V10.75ZM12 16.75C12 15.9216 12.6716 15.25 13.5 15.25H25.5C26.3284 15.25 27 15.9216 27 16.75C27 17.5784 26.3284 18.25 25.5 18.25H13.5C12.6716 18.25 12 17.5784 12 16.75Z" fill="white"/>
</svg>
