<svg width="24" height="24" viewBox="0 0 24 24" fill="none" xmlns="http://www.w3.org/2000/svg">
<path d="M14 19.748C13.3608 19.9125 12.6906 20 12 20C7.58172 20 4 16.4183 4 12C4 7.58172 7.58172 4 12 4C16.0796 4 19.446 7.05369 19.9381 11" stroke="white" stroke-width="1.33" stroke-linecap="round"/>
<path d="M12 14V8.5" stroke="white" stroke-width="1.33" stroke-linecap="round" stroke-linejoin="round"/>
<path d="M9 12.5L12 15.5L15 12.5" stroke="white" stroke-width="1.33" stroke-linecap="round" stroke-linejoin="round"/>
<path fill-rule="evenodd" clip-rule="evenodd" d="M20 12.835C18.252 12.835 16.835 14.252 16.835 16V17.5307C16.3253 17.9588 16 18.6076 16 19.3333V21.6667C16 22.9544 17.0242 24 18.2857 24H21.7143C22.9758 24 24 22.9544 24 21.6667V19.3333C24 18.6076 23.6747 17.9588 23.165 17.5307V16C23.165 14.252 21.748 12.835 20 12.835ZM21.835 17.0032V16C21.835 14.9866 21.0134 14.165 20 14.165C18.9866 14.165 18.165 14.9866 18.165 16V17.0032C18.205 17.0011 18.2452 17 18.2857 17H21.7143C21.7548 17 21.795 17.0011 21.835 17.0032Z" fill="white" style="mix-blend-mode:overlay"/>
<path fill-rule="evenodd" clip-rule="evenodd" d="M20 12.835C18.252 12.835 16.835 14.252 16.835 16V17.5307C16.3253 17.9588 16 18.6076 16 19.3333V21.6667C16 22.9544 17.0242 24 18.2857 24H21.7143C22.9758 24 24 22.9544 24 21.6667V19.3333C24 18.6076 23.6747 17.9588 23.165 17.5307V16C23.165 14.252 21.748 12.835 20 12.835ZM21.835 17.0032V16C21.835 14.9866 21.0134 14.165 20 14.165C18.9866 14.165 18.165 14.9866 18.165 16V17.0032C18.205 17.0011 18.2452 17 18.2857 17H21.7143C21.7548 17 21.795 17.0011 21.835 17.0032Z" fill="white" fill-opacity="0.4" style="mix-blend-mode:overlay"/>
</svg>
