<svg width="24" height="24" viewBox="0 0 24 24" fill="none" xmlns="http://www.w3.org/2000/svg">
<path fill-rule="evenodd" clip-rule="evenodd" d="M11.9988 3.63078C7.3762 3.63078 3.62883 7.37816 3.62883 12.0008C3.62883 16.6234 7.3762 20.3708 11.9988 20.3708C16.156 20.3708 19.6068 17.3392 20.2581 13.3662C20.3323 12.9138 20.7591 12.6073 21.2115 12.6814C21.6638 12.7556 21.9704 13.1824 21.8963 13.6348C21.1155 18.3972 16.9823 22.0308 11.9988 22.0308C6.45941 22.0308 1.96883 17.5402 1.96883 12.0008C1.96883 6.46137 6.45941 1.97078 11.9988 1.97078C13.143 1.97078 14.2441 2.1627 15.2706 2.51677C15.704 2.66624 15.9341 3.13871 15.7846 3.57205C15.6352 4.00539 15.1627 4.23552 14.7294 4.08605C13.8746 3.79123 12.9563 3.63078 11.9988 3.63078ZM19.0612 6.83L14.9442 11.7704L12.5869 9.4131C12.2628 9.08897 11.7372 9.08897 11.4131 9.4131L6.4131 14.4131C6.08897 14.7372 6.08897 15.2628 6.4131 15.5869C6.73724 15.911 7.26276 15.911 7.5869 15.5869L12 11.1738L14.4131 13.5869C14.578 13.7518 14.8047 13.8397 15.0376 13.8291C15.2706 13.8186 15.4883 13.7105 15.6376 13.5314L20.17 8.0925V10C20.17 10.4584 20.5416 10.83 21 10.83C21.4584 10.83 21.83 10.4584 21.83 10V6C21.83 5.5416 21.4584 5.17 21 5.17H17C16.5416 5.17 16.17 5.5416 16.17 6C16.17 6.4584 16.5416 6.83 17 6.83H19.0612Z" fill="black"/>
</svg>
