<svg width="44" height="44" viewBox="0 0 44 44" fill="none" xmlns="http://www.w3.org/2000/svg">
<path d="M21.9979 6.65643C13.523 6.65643 6.65285 13.5266 6.65285 22.0014C6.65285 30.4762 13.523 37.3464 21.9979 37.3464C29.6194 37.3464 35.9457 31.7885 37.1399 24.5047C37.2759 23.6754 38.0584 23.1133 38.8877 23.2493C39.7171 23.3852 40.2791 24.1678 40.1432 24.9971C38.7117 33.7281 31.1342 40.3898 21.9979 40.3898C11.8423 40.3898 3.60952 32.157 3.60952 22.0014C3.60952 11.8458 11.8423 3.6131 21.9979 3.6131C24.0955 3.6131 26.1142 3.96495 27.9962 4.61408C28.7906 4.88811 29.2125 5.75429 28.9385 6.54876C28.6645 7.34322 27.7983 7.76511 27.0038 7.49108C25.4368 6.95059 23.7533 6.65643 21.9979 6.65643Z" fill="black"/>
<path d="M34.9456 12.5217L27.3977 21.5791L23.076 17.2574C22.4817 16.6631 21.5183 16.6631 20.924 17.2574L11.7574 26.424C11.1631 27.0183 11.1631 27.9817 11.7574 28.576C12.3516 29.1702 13.3151 29.1702 13.9093 28.576L22 20.4853L26.424 24.9093C26.7263 25.2116 27.1419 25.3728 27.569 25.3534C27.996 25.3341 28.3953 25.1359 28.669 24.8075L36.9783 14.8363V18.3333C36.9783 19.1737 37.6596 19.855 38.5 19.855C39.3404 19.855 40.0217 19.1737 40.0217 18.3333V11C40.0217 10.1596 39.3404 9.47833 38.5 9.47833H31.1667C30.3263 9.47833 29.645 10.1596 29.645 11C29.645 11.8404 30.3263 12.5217 31.1667 12.5217H34.9456Z" fill="black"/>
</svg>
