<svg width="24" height="24" viewBox="0 0 24 24" fill="none" xmlns="http://www.w3.org/2000/svg">
<path fill-rule="evenodd" clip-rule="evenodd" d="M5 3.165C4.53884 3.165 4.165 3.53884 4.165 4C4.165 4.46116 4.53884 4.835 5 4.835C5.46116 4.835 5.835 4.46116 5.835 4C5.835 3.53884 5.46116 3.165 5 3.165ZM7.165 4C7.165 4.9637 6.53535 5.78033 5.665 6.06095V8.5C5.665 8.86727 5.36727 9.165 5 9.165C4.63273 9.165 4.335 8.86727 4.335 8.5V6.06095C3.46465 5.78033 2.835 4.9637 2.835 4C2.835 2.8043 3.8043 1.835 5 1.835C6.1957 1.835 7.165 2.8043 7.165 4ZM8.335 7C8.335 6.63273 8.63273 6.335 9 6.335H19C19.3673 6.335 19.665 6.63273 19.665 7C19.665 7.36727 19.3673 7.665 19 7.665H9C8.63273 7.665 8.335 7.36727 8.335 7ZM19.665 15.5C19.665 15.1327 19.3673 14.835 19 14.835C18.6327 14.835 18.335 15.1327 18.335 15.5V17.939C17.4647 18.2197 16.835 19.0363 16.835 20C16.835 21.1957 17.8043 22.165 19 22.165C20.1957 22.165 21.165 21.1957 21.165 20C21.165 19.0363 20.5353 18.2197 19.665 17.939V15.5ZM4.335 12C4.335 11.6327 4.63273 11.335 5 11.335H19C19.3673 11.335 19.665 11.6327 19.665 12C19.665 12.3673 19.3673 12.665 19 12.665H5C4.63273 12.665 4.335 12.3673 4.335 12ZM5 16.335C4.63273 16.335 4.335 16.6327 4.335 17C4.335 17.3673 4.63273 17.665 5 17.665H15C15.3673 17.665 15.665 17.3673 15.665 17C15.665 16.6327 15.3673 16.335 15 16.335H5ZM18.165 20C18.165 19.5388 18.5388 19.165 19 19.165C19.4612 19.165 19.835 19.5388 19.835 20C19.835 20.4612 19.4612 20.835 19 20.835C18.5388 20.835 18.165 20.4612 18.165 20Z" fill="black"/>
</svg>
