<svg width="30" height="30" viewBox="0 0 30 30" fill="none" xmlns="http://www.w3.org/2000/svg">
<g clip-path="url(#clip0_1001_6263)">
<rect width="30" height="30" rx="7" fill="#FF9500"/>
<path fill-rule="evenodd" clip-rule="evenodd" d="M5.32698 7.63803C5 8.27976 5 9.11984 5 10.8V19.2C5 20.8802 5 21.7202 5.32698 22.362C5.6146 22.9265 6.07354 23.3854 6.63803 23.673C7.27976 24 8.11984 24 9.8 24H20.2C21.8802 24 22.7202 24 23.362 23.673C23.9265 23.3854 24.3854 22.9265 24.673 22.362C25 21.7202 25 20.8802 25 19.2V10.8C25 9.11984 25 8.27976 24.673 7.63803C24.3854 7.07354 23.9265 6.6146 23.362 6.32698C22.7202 6 21.8802 6 20.2 6H9.8C8.11984 6 7.27976 6 6.63803 6.32698C6.07354 6.6146 5.6146 7.07354 5.32698 7.63803ZM20.0287 11.6688L20.05 11.6688H21.75C22.2091 11.6688 22.5813 12.0409 22.5813 12.5C22.5813 12.9591 22.2091 13.3313 21.75 13.3313H20.0813V14.1688H21.75C22.2091 14.1688 22.5813 14.5409 22.5813 15C22.5813 15.4591 22.2091 15.8313 21.75 15.8313H20.0813V17.5C20.0813 17.9591 19.7091 18.3313 19.25 18.3313C18.7909 18.3313 18.4188 17.9591 18.4188 17.5V15V13.3L18.4188 13.2787C18.4187 13.1576 18.4187 13.022 18.4283 12.9039C18.4393 12.7691 18.467 12.5858 18.5639 12.3956C18.6915 12.1451 18.8951 11.9415 19.1456 11.8139C19.3358 11.7169 19.5191 11.6893 19.6539 11.6783C19.772 11.6687 19.9076 11.6687 20.0287 11.6688ZM16.8293 12.5C16.8293 12.0409 16.4571 11.6688 15.9981 11.6688C15.539 11.6688 15.1668 12.0409 15.1668 12.5V17.5C15.1668 17.9591 15.539 18.3313 15.9981 18.3313C16.4571 18.3313 16.8293 17.9591 16.8293 17.5V12.5ZM7.41876 15C7.41876 13.1602 8.91021 11.6688 10.75 11.6688C11.3028 11.6688 11.8264 11.804 12.2871 12.044C12.6943 12.2561 12.8525 12.7581 12.6404 13.1652C12.4284 13.5724 11.9264 13.7306 11.5192 13.5185C11.2899 13.3991 11.0291 13.3313 10.75 13.3313C9.82839 13.3313 9.08126 14.0784 9.08126 15C9.08126 15.9216 9.82839 16.6688 10.75 16.6688C11.3069 16.6688 11.8393 16.367 12.0753 15.8313H11.75C11.2909 15.8313 10.9188 15.4591 10.9188 15C10.9188 14.5409 11.2909 14.1688 11.75 14.1688H12.722C13.3865 14.1688 13.9079 14.7388 13.8488 15.4007L13.8183 15.7415L13.8147 15.7823L13.807 15.8227C13.4977 17.4503 12.0907 18.3313 10.75 18.3313C8.91021 18.3313 7.41876 16.8398 7.41876 15Z" fill="white"/>
</g>
<defs>
<clipPath id="clip0_1001_6263">
<rect width="30" height="30" fill="white"/>
</clipPath>
</defs>
</svg>
