<svg width="24" height="24" viewBox="0 0 24 24" fill="none" xmlns="http://www.w3.org/2000/svg">
<path fill-rule="evenodd" clip-rule="evenodd" d="M4.47023 3.52977C4.21053 3.27008 3.78947 3.27008 3.52977 3.52977C3.27008 3.78947 3.27008 4.21053 3.52977 4.47023L19.5298 20.4702C19.7895 20.7299 20.2105 20.7299 20.4702 20.4702C20.7299 20.2105 20.7299 19.7895 20.4702 19.5298L18.6055 17.665H19C19.3673 17.665 19.665 17.3673 19.665 17C19.665 16.6327 19.3673 16.335 19 16.335H17.2755L13.6055 12.665H19C19.3673 12.665 19.665 12.3673 19.665 12C19.665 11.6327 19.3673 11.335 19 11.335H12.2755L8.60545 7.665H12.5C12.8673 7.665 13.165 7.36727 13.165 7C13.165 6.63273 12.8673 6.335 12.5 6.335H7.27545L4.47023 3.52977ZM4.33502 7C4.33502 6.93205 4.34521 6.86647 4.36415 6.80473L5.22443 7.665H5.00002C4.63275 7.665 4.33502 7.36727 4.33502 7ZM5.00002 11.335H8.89443L10.2244 12.665H5.00002C4.63275 12.665 4.33502 12.3673 4.33502 12C4.33502 11.6327 4.63275 11.335 5.00002 11.335ZM5.00002 16.335H13.8944L15.2244 17.665H5.00002C4.63275 17.665 4.33502 17.3673 4.33502 17C4.33502 16.6327 4.63275 16.335 5.00002 16.335ZM20.6406 5.16992C20.3281 4.85742 19.9492 4.70117 19.5039 4.70117C19.2578 4.70117 19.0313 4.75391 18.8242 4.85937C18.6172 4.96484 18.4531 5.11328 18.3321 5.30469C18.2071 5.5 18.1446 5.72852 18.1446 5.99023C18.1446 6.36523 18.2598 6.66602 18.4903 6.89258C18.7168 7.11914 19.0039 7.23242 19.3516 7.23242C19.5938 7.23242 19.7969 7.16797 19.961 7.03906C20.0355 6.98226 20.0992 6.91214 20.152 6.82871C20.1095 7.02421 20.042 7.2037 19.9492 7.36719C19.8008 7.62891 19.6016 7.83594 19.3516 7.98828C19.1016 8.14062 18.8145 8.22461 18.4903 8.24023C18.3809 8.24414 18.2891 8.2832 18.2149 8.35742C18.1406 8.43164 18.1035 8.52344 18.1035 8.63281C18.1035 8.76562 18.1524 8.86719 18.25 8.9375C18.3477 9.00781 18.4688 9.04297 18.6133 9.04297C19.0547 9.04297 19.4649 8.92773 19.8438 8.69727C20.2188 8.4707 20.5235 8.16016 20.7578 7.76562C20.9883 7.37109 21.1035 6.92773 21.1035 6.43555C21.1035 5.9082 20.9492 5.48633 20.6406 5.16992ZM17.0547 5.16992C16.7422 4.85742 16.3633 4.70117 15.918 4.70117C15.6719 4.70117 15.4453 4.75391 15.2383 4.85937C15.0313 4.96484 14.8653 5.11328 14.7403 5.30469C14.6153 5.5 14.5528 5.72852 14.5528 5.99023C14.5528 6.36523 14.668 6.66602 14.8985 6.89258C15.125 7.11914 15.4141 7.23242 15.7656 7.23242C16.0039 7.23242 16.2071 7.16797 16.375 7.03906C16.4496 6.98226 16.5133 6.91214 16.566 6.82871C16.5236 7.02421 16.456 7.2037 16.3633 7.36719C16.2149 7.63281 16.0156 7.83984 15.7656 7.98828C15.5156 8.14062 15.2305 8.22461 14.9102 8.24023C14.793 8.24414 14.6973 8.2832 14.6231 8.35742C14.5489 8.43164 14.5117 8.52344 14.5117 8.63281C14.5117 8.76562 14.5606 8.86719 14.6582 8.9375C14.7559 9.00781 14.8789 9.04297 15.0274 9.04297C15.4649 9.04297 15.8731 8.92773 16.252 8.69727C16.6309 8.4707 16.9375 8.16016 17.1719 7.76562C17.4024 7.37109 17.5176 6.92773 17.5176 6.43555C17.5176 5.9082 17.3633 5.48633 17.0547 5.16992Z" fill="black"/>
</svg>
