<svg width="12" height="13" viewBox="0 0 12 13" fill="none" xmlns="http://www.w3.org/2000/svg">
<path fill-rule="evenodd" clip-rule="evenodd" d="M4.02539 11.1484C4.50657 11.4116 5.03826 11.5582 5.5953 11.5986C6.8004 11.7638 7.87138 11.3618 8.80824 10.3926C9.7451 9.42338 10.1296 8.28857 9.96174 6.98816C9.92908 6.45213 9.86116 5.95798 9.71184 5.46195L4.02539 11.1484ZM2.7871 10.0391C2.54531 9.70246 2.33754 9.30842 2.17149 8.85384C1.77098 7.7574 2.07201 6.26373 3.0746 4.37282C3.16459 4.20303 3.68939 4.39974 3.71944 4.44691L4.50543 5.68903C4.55963 5.77404 4.79721 5.69973 4.8111 5.67179C5.03783 5.21551 5.22636 4.6273 5.37671 3.90715C5.52201 3.21113 5.59278 2.56825 5.5953 1.81662C5.59594 1.62274 5.95245 1.32054 6 1.34613C7.14662 1.96317 8.0944 2.72803 8.66171 3.48285C8.76382 3.61871 8.85801 3.75133 8.9449 3.8813L2.7871 10.0391Z" fill="#8E8E93"/>
<path d="M2 11L10 3" stroke="#8E8E93" stroke-width="1.33" stroke-linecap="round"/>
</svg>
