<svg width="17" height="17" viewBox="0 0 17 17" fill="none" xmlns="http://www.w3.org/2000/svg">
<path d="M5.00575 11.8681C7.53795 14.4003 10.6134 16.3542 13.1281 16.3542C14.2584 16.3542 15.2485 15.96 16.0458 15.0838C16.5102 14.5668 16.7993 13.9622 16.7993 13.3664C16.7993 12.9283 16.6328 12.5078 16.221 12.2098L13.5311 10.2997C13.1193 10.0194 12.7776 9.87917 12.4622 9.87917C12.0679 9.87917 11.7086 10.107 11.3056 10.5013L10.6835 11.1146C10.5871 11.211 10.4644 11.2548 10.3505 11.2548C10.2191 11.2548 10.0877 11.2022 10.0001 11.1584C9.45681 10.8693 8.52805 10.0719 7.66062 9.21326C6.80195 8.3546 6.00461 7.42583 5.72423 6.88259C5.68042 6.78621 5.62785 6.66354 5.62785 6.53211C5.62785 6.41821 5.6629 6.3043 5.75928 6.20792L6.38137 5.5683C6.7669 5.16525 7.00347 4.81477 7.00347 4.41172C7.00347 4.09629 6.85452 3.75458 6.56538 3.34277L4.68156 0.687902C4.37489 0.267329 3.94556 0.0833282 3.47241 0.0833282C2.89412 0.0833282 2.29831 0.346186 1.78136 0.845617C0.931451 1.66048 0.554688 2.6681 0.554688 3.78086C0.554688 6.29554 2.47355 9.34469 5.00575 11.8681Z" fill="white"/>
</svg>
