<svg width="25" height="20" viewBox="0 0 25 20" fill="none" xmlns="http://www.w3.org/2000/svg">
<path fill-rule="evenodd" clip-rule="evenodd" d="M12.0215 1.74537C11.9928 1.76196 11.9262 1.80388 11.8112 1.9001C11.5861 2.08859 11.2955 2.37806 10.8555 2.81805L7.51582 6.15775L7.48882 6.1848C7.38313 6.29082 7.2639 6.41043 7.1236 6.50704C6.91149 6.65308 6.67096 6.75271 6.41771 6.79942C6.25019 6.83032 6.08131 6.83006 5.93161 6.82982H5.9316L5.89338 6.82978H5.49998C4.51658 6.82978 4.18769 6.83691 3.93835 6.90372C3.1895 7.10438 2.60458 7.68929 2.40393 8.43814C2.33711 8.68749 2.32998 9.01637 2.32998 9.99978C2.32998 10.9832 2.33711 11.3121 2.40393 11.5614C2.60458 12.3103 3.1895 12.8952 3.93835 13.0958C4.18769 13.1627 4.51658 13.1698 5.49998 13.1698H5.89338L5.93159 13.1697C6.0813 13.1695 6.25018 13.1692 6.41771 13.2001C6.67096 13.2468 6.91149 13.3465 7.1236 13.4925C7.26389 13.5891 7.38311 13.7087 7.4888 13.8147L7.48881 13.8147L7.48882 13.8148L7.51582 13.8418L10.8555 17.1815C11.2955 17.6215 11.5861 17.911 11.8112 18.0995C11.9262 18.1957 11.9928 18.2376 12.0215 18.2542C12.0516 18.2504 12.08 18.2386 12.104 18.2201C12.1125 18.188 12.13 18.1112 12.1433 17.9619C12.1692 17.6694 12.17 17.2593 12.17 16.637V3.36252C12.17 2.74028 12.1692 2.33012 12.1433 2.03763C12.13 1.88834 12.1125 1.81154 12.104 1.77951C12.08 1.761 12.0516 1.7492 12.0215 1.74537ZM11.8564 0.0896356C12.4404 0.0436749 13.0111 0.280065 13.3915 0.725504C13.6934 1.07892 13.7652 1.53495 13.7968 1.89111C13.83 2.266 13.83 2.75092 13.83 3.32317V3.32321V3.36252V16.637V16.6764V16.6764C13.83 17.2486 13.83 17.7336 13.7968 18.1085C13.7652 18.4646 13.6934 18.9206 13.3915 19.2741C13.0111 19.7195 12.4404 19.9559 11.8564 19.9099C11.3931 19.8735 11.0198 19.6018 10.7456 19.3723C10.457 19.1307 10.1141 18.7878 9.70949 18.3831L9.68171 18.3553L6.34202 15.0156C6.27117 14.9448 6.23288 14.9066 6.20321 14.879C6.19006 14.8667 6.18292 14.8607 6.18011 14.8584C6.16161 14.846 6.14087 14.8374 6.11905 14.8331C6.11543 14.8327 6.10609 14.832 6.08813 14.8313C6.04761 14.8299 5.99358 14.8298 5.89338 14.8298H5.49998L5.37661 14.8298C4.5664 14.8301 3.9979 14.8304 3.50871 14.6993C2.18701 14.3451 1.15464 13.3128 0.800489 11.9911C0.66941 11.5019 0.669634 10.9334 0.669953 10.1232L0.669985 9.99978L0.669953 9.8764C0.669634 9.06619 0.66941 8.49769 0.800489 8.0085C1.15464 6.6868 2.18701 5.65443 3.50871 5.30028C3.9979 5.16921 4.56639 5.16943 5.3766 5.16975L5.49998 5.16978H5.89338C5.99358 5.16978 6.04762 5.16966 6.08813 5.16823C6.10609 5.16759 6.11544 5.16684 6.11906 5.16649C6.14087 5.16214 6.16161 5.15354 6.18012 5.1412C6.18293 5.13889 6.19006 5.13281 6.20321 5.12056C6.23288 5.09292 6.27117 5.0548 6.34202 4.98395L9.68171 1.64426L9.70949 1.61647C10.1141 1.2118 10.457 0.868883 10.7456 0.627275C11.0198 0.397752 11.3931 0.126102 11.8564 0.0896356ZM24.4702 6.52955C24.2105 6.26986 23.7895 6.26986 23.5298 6.52955L21 9.05933L18.4702 6.52955C18.2105 6.26986 17.7895 6.26986 17.5298 6.52955C17.2701 6.78925 17.2701 7.21031 17.5298 7.47001L20.0595 9.99978L17.5298 12.5296C17.2701 12.7893 17.2701 13.2103 17.5298 13.47C17.7895 13.7297 18.2105 13.7297 18.4702 13.47L21 10.9402L23.5298 13.47C23.7895 13.7297 24.2105 13.7297 24.4702 13.47C24.7299 13.2103 24.7299 12.7893 24.4702 12.5296L21.9404 9.99978L24.4702 7.47001C24.7299 7.21031 24.7299 6.78925 24.4702 6.52955Z" fill="white"/>
</svg>
