<svg width="7" height="10" viewBox="0 0 7 10" fill="none" xmlns="http://www.w3.org/2000/svg">
<path fill-rule="evenodd" clip-rule="evenodd" d="M3.5 0.835039C2.02816 0.835039 0.835 2.0282 0.835 3.50004V4.67699C0.548874 4.82654 0.316237 5.06149 0.169545 5.34939C0 5.68214 0 6.11774 0 6.98893V7.51115C0 8.38234 0 8.81794 0.169545 9.15069C0.318682 9.44339 0.556652 9.68136 0.849348 9.83049C1.1821 10 1.6177 10 2.48889 10H4.51111C5.3823 10 5.8179 10 6.15065 9.83049C6.44335 9.68136 6.68132 9.44339 6.83045 9.15069C7 8.81794 7 8.38234 7 7.51115V6.98893C7 6.11774 7 5.68214 6.83045 5.34939C6.68376 5.06149 6.45113 4.82654 6.165 4.67699V3.50004C6.165 2.0282 4.97184 0.835039 3.5 0.835039ZM4.835 4.50043V3.50004C4.835 2.76274 4.2373 2.16504 3.5 2.16504C2.7627 2.16504 2.165 2.76274 2.165 3.50004V4.50043C2.26584 4.50004 2.37355 4.50004 2.48889 4.50004H4.51111C4.62645 4.50004 4.73416 4.50004 4.835 4.50043Z" fill="black" style="mix-blend-mode:overlay"/>
<path fill-rule="evenodd" clip-rule="evenodd" d="M3.5 0.835039C2.02816 0.835039 0.835 2.0282 0.835 3.50004V4.67699C0.548874 4.82654 0.316237 5.06149 0.169545 5.34939C0 5.68214 0 6.11774 0 6.98893V7.51115C0 8.38234 0 8.81794 0.169545 9.15069C0.318682 9.44339 0.556652 9.68136 0.849348 9.83049C1.1821 10 1.6177 10 2.48889 10H4.51111C5.3823 10 5.8179 10 6.15065 9.83049C6.44335 9.68136 6.68132 9.44339 6.83045 9.15069C7 8.81794 7 8.38234 7 7.51115V6.98893C7 6.11774 7 5.68214 6.83045 5.34939C6.68376 5.06149 6.45113 4.82654 6.165 4.67699V3.50004C6.165 2.0282 4.97184 0.835039 3.5 0.835039ZM4.835 4.50043V3.50004C4.835 2.76274 4.2373 2.16504 3.5 2.16504C2.7627 2.16504 2.165 2.76274 2.165 3.50004V4.50043C2.26584 4.50004 2.37355 4.50004 2.48889 4.50004H4.51111C4.62645 4.50004 4.73416 4.50004 4.835 4.50043Z" fill="black" fill-opacity="0.15"/>
</svg>
