<svg width="18" height="18" viewBox="0 0 18 18" fill="none" xmlns="http://www.w3.org/2000/svg">
<path fill-rule="evenodd" clip-rule="evenodd" d="M9.66496 0.999961C9.66496 0.632692 9.36723 0.334961 8.99996 0.334961C4.21442 0.334961 0.334961 4.21441 0.334961 8.99996C0.334961 13.7855 4.21442 17.665 8.99996 17.665C13.7855 17.665 17.665 13.7855 17.665 8.99996C17.665 5.90988 16.0476 3.1987 13.6148 1.66496H15.5C15.8672 1.66496 16.165 1.36723 16.165 0.999961C16.165 0.632692 15.8672 0.334961 15.5 0.334961H12C11.6327 0.334961 11.335 0.632692 11.335 0.999961V4.49996C11.335 4.86723 11.6327 5.16496 12 5.16496C12.3672 5.16496 12.665 4.86723 12.665 4.49996V2.64464C14.8596 3.91304 16.335 6.28482 16.335 8.99996C16.335 13.051 13.051 16.335 8.99996 16.335C4.94895 16.335 1.66496 13.051 1.66496 8.99996C1.66496 4.94895 4.94895 1.66496 8.99996 1.66496C9.36723 1.66496 9.66496 1.36723 9.66496 0.999961ZM9.66492 3.99997C9.66492 3.6327 9.36719 3.33497 8.99992 3.33497C8.63265 3.33497 8.33492 3.6327 8.33492 3.99997V8.99997C8.33492 9.17634 8.40499 9.34548 8.5297 9.4702L11.5297 12.4702C11.7894 12.7299 12.2105 12.7299 12.4701 12.4702C12.7298 12.2105 12.7298 11.7894 12.4701 11.5297L9.66492 8.72452V3.99997Z" fill="black"/>
</svg>
