<svg width="24" height="24" viewBox="0 0 24 24" fill="none" xmlns="http://www.w3.org/2000/svg">
<path fill-rule="evenodd" clip-rule="evenodd" d="M20.6406 5.16992C20.3281 4.85742 19.9492 4.70117 19.5039 4.70117C19.2578 4.70117 19.0313 4.75391 18.8242 4.85938C18.6172 4.96484 18.4531 5.11328 18.332 5.30469C18.207 5.5 18.1445 5.72852 18.1445 5.99023C18.1445 6.36523 18.2598 6.66602 18.4902 6.89258C18.7168 7.11914 19.0039 7.23242 19.3516 7.23242C19.5938 7.23242 19.7969 7.16797 19.9609 7.03906C20.0355 6.98226 20.0992 6.91214 20.1519 6.82871C20.1095 7.02421 20.0419 7.2037 19.9492 7.36719C19.8008 7.62891 19.6016 7.83594 19.3516 7.98828C19.1016 8.14062 18.8145 8.22461 18.4902 8.24023C18.3809 8.24414 18.2891 8.2832 18.2148 8.35742C18.1406 8.43164 18.1035 8.52344 18.1035 8.63281C18.1035 8.76562 18.1523 8.86719 18.25 8.9375C18.3477 9.00781 18.4688 9.04297 18.6133 9.04297C19.0547 9.04297 19.4648 8.92773 19.8438 8.69727C20.2188 8.4707 20.5234 8.16016 20.7578 7.76562C20.9883 7.37109 21.1035 6.92773 21.1035 6.43555C21.1035 5.9082 20.9492 5.48633 20.6406 5.16992ZM17.0547 5.16992C16.7422 4.85742 16.3633 4.70117 15.918 4.70117C15.6719 4.70117 15.4453 4.75391 15.2383 4.85938C15.0313 4.96484 14.8652 5.11328 14.7402 5.30469C14.6152 5.5 14.5527 5.72852 14.5527 5.99023C14.5527 6.36523 14.668 6.66602 14.8984 6.89258C15.125 7.11914 15.4141 7.23242 15.7656 7.23242C16.0039 7.23242 16.207 7.16797 16.375 7.03906C16.4496 6.98226 16.5132 6.91214 16.566 6.82871C16.5236 7.02421 16.456 7.2037 16.3633 7.36719C16.2148 7.63281 16.0156 7.83984 15.7656 7.98828C15.5156 8.14062 15.2305 8.22461 14.9102 8.24023C14.793 8.24414 14.6973 8.2832 14.623 8.35742C14.5488 8.43164 14.5117 8.52344 14.5117 8.63281C14.5117 8.76562 14.5605 8.86719 14.6582 8.9375C14.7559 9.00781 14.8789 9.04297 15.0273 9.04297C15.4648 9.04297 15.873 8.92773 16.252 8.69727C16.6309 8.4707 16.9375 8.16016 17.1719 7.76562C17.4023 7.37109 17.5176 6.92773 17.5176 6.43555C17.5176 5.9082 17.3633 5.48633 17.0547 5.16992ZM5 6.335C4.63273 6.335 4.335 6.63273 4.335 7C4.335 7.36727 4.63273 7.665 5 7.665H12.5C12.8673 7.665 13.165 7.36727 13.165 7C13.165 6.63273 12.8673 6.335 12.5 6.335H5ZM5 11.335C4.63273 11.335 4.335 11.6327 4.335 12C4.335 12.3673 4.63273 12.665 5 12.665H19C19.3673 12.665 19.665 12.3673 19.665 12C19.665 11.6327 19.3673 11.335 19 11.335H5ZM4.335 17C4.335 16.6327 4.63273 16.335 5 16.335H19C19.3673 16.335 19.665 16.6327 19.665 17C19.665 17.3673 19.3673 17.665 19 17.665H5C4.63273 17.665 4.335 17.3673 4.335 17Z" fill="black"/>
</svg>
