<svg width="30" height="30" viewBox="0 0 30 30" fill="none" xmlns="http://www.w3.org/2000/svg">
<g clip-path="url(#clip0_1001_6305)">
<rect width="30" height="30" rx="7" fill="#00C7BE"/>
<path fill-rule="evenodd" clip-rule="evenodd" d="M5 15C5 19.6672 8.1974 23.5877 12.5212 24.6904C12.1923 24.209 12 23.627 12 23V21.8869C10.2129 21.0612 9.29757 19.5789 8.85926 18.5679C8.68659 18.1697 9.1181 17.8198 9.52066 17.9822C10.6079 18.4208 12.5143 19 15 19C17.4857 19 19.3921 18.4208 20.4793 17.9822C20.8819 17.8198 21.3134 18.1697 21.1407 18.568C20.7024 19.5789 19.7871 21.0612 18 21.8869V23C18 23.627 17.8077 24.209 17.4788 24.6904C21.8026 23.5877 25 19.6672 25 15C25 9.47715 20.5228 5 15 5C9.47715 5 5 9.47715 5 15ZM19 15.75C20.2426 15.75 21.25 14.7426 21.25 13.5C21.25 12.2574 20.2426 11.25 19 11.25C17.7574 11.25 16.75 12.2574 16.75 13.5C16.75 14.7426 17.7574 15.75 19 15.75ZM19 16.75C20.7949 16.75 22.25 15.2949 22.25 13.5C22.25 11.7051 20.7949 10.25 19 10.25C17.2051 10.25 15.75 11.7051 15.75 13.5C15.75 15.2949 17.2051 16.75 19 16.75ZM20 13.5C20 14.0523 19.5523 14.5 19 14.5C18.4477 14.5 18 14.0523 18 13.5C18 12.9477 18.4477 12.5 19 12.5C19.5523 12.5 20 12.9477 20 13.5ZM13.9826 14.5529C13.5523 14.0359 12.7941 13.5 11.5 13.5C10.2059 13.5 9.44774 14.0359 9.01739 14.5529C8.74409 14.8812 9.10359 15.2328 9.51 15.1012C10.0636 14.9219 10.7818 14.75 11.5 14.75C12.2182 14.75 12.9364 14.9219 13.49 15.1012C13.8964 15.2328 14.2559 14.8812 13.9826 14.5529ZM14 20C13.4477 20 13 20.4477 13 21V23C13 24.1046 13.8954 25 15 25C16.1046 25 17 24.1046 17 23V21C17 20.4477 16.5523 20 16 20C15.7144 20 15.4734 20.2127 15.438 20.4961L15.137 22.9036C15.1169 23.0649 14.8831 23.0649 14.863 22.9036L14.562 20.4961C14.5266 20.2127 14.2856 20 14 20Z" fill="white"/>
</g>
<defs>
<clipPath id="clip0_1001_6305">
<rect width="30" height="30" fill="white"/>
</clipPath>
</defs>
</svg>
