<svg width="24" height="24" viewBox="0 0 24 24" fill="none" xmlns="http://www.w3.org/2000/svg">
<path fill-rule="evenodd" clip-rule="evenodd" d="M4.47037 3.52973C4.21067 3.27004 3.78962 3.27004 3.52992 3.52973C3.27022 3.78943 3.27022 4.21049 3.52992 4.47019L13.7099 14.6502C13.9246 14.8649 14.2495 14.9021 14.5024 14.7618L14.5046 14.7641C14.508 14.761 14.5114 14.7579 14.5148 14.7548C14.5632 14.7266 14.6089 14.6917 14.6504 14.6502C14.6919 14.6087 14.7267 14.5631 14.755 14.5147C15.3607 13.8515 15.7302 12.9688 15.7302 11.9999C15.7302 9.93983 14.0602 8.26985 12.0002 8.26985C11.2103 8.26985 10.4778 8.51535 9.87483 8.93419L8.67856 7.73793C9.64518 7.32933 10.7528 7.06502 12.0008 7.06502C16.117 7.06502 18.707 9.94002 19.7462 11.3878C19.9603 11.6861 20.3758 11.7544 20.6742 11.5402C20.9726 11.3261 21.0408 10.9106 20.8267 10.6122C19.7141 9.06223 16.7778 5.73502 12.0008 5.73502C10.3346 5.73502 8.89242 6.1397 7.67332 6.73268L4.47037 3.52973ZM10.8394 9.89874L14.1013 13.1607C14.2918 12.8166 14.4002 12.4209 14.4002 11.9999C14.4002 10.6744 13.3257 9.59985 12.0002 9.59985C11.5791 9.59985 11.1834 9.70828 10.8394 9.89874ZM5.77418 7.9145C4.47929 8.91081 3.5894 10.0209 3.10255 10.7141C2.64774 11.3616 2.63304 12.2024 3.05545 12.8663C4.06881 14.4589 7.00176 18.265 12.0008 18.265C12.7635 18.265 13.4808 18.1758 14.1521 18.0181C14.5097 17.9342 14.7314 17.5762 14.6475 17.2187C14.5635 16.8612 14.2056 16.6394 13.848 16.7234C13.2741 16.8582 12.6588 16.935 12.0008 16.935C7.72719 16.935 5.14063 13.6659 4.17757 12.1523C4.04178 11.9389 4.04807 11.6819 4.19091 11.4785C4.66462 10.8041 5.50984 9.7646 6.72349 8.86381L5.77418 7.9145ZM8.51851 10.6588C8.35811 11.075 8.27018 11.5272 8.27018 11.9999C8.27018 14.0599 9.94016 15.7299 12.0002 15.7299C12.4729 15.7299 12.925 15.6419 13.3412 15.4815L12.247 14.3873C12.1659 14.3956 12.0835 14.3999 12.0002 14.3999C10.6747 14.3999 9.60018 13.3253 9.60018 11.9999C9.60018 11.9165 9.60443 11.8342 9.61272 11.753L8.51851 10.6588Z" fill="white"/>
<path fill-rule="evenodd" clip-rule="evenodd" d="M20 12.835C18.252 12.835 16.835 14.252 16.835 16V17.5307C16.3253 17.9588 16 18.6076 16 19.3333V21.6666C16 22.9544 17.0242 24 18.2857 24H21.7143C22.9758 24 24 22.9544 24 21.6666V19.3333C24 18.6076 23.6747 17.9588 23.165 17.5307V16C23.165 14.252 21.748 12.835 20 12.835ZM21.835 17.0032V16C21.835 14.9865 21.0134 14.165 20 14.165C18.9866 14.165 18.165 14.9865 18.165 16V17.0032C18.205 17.001 18.2452 17 18.2857 17H21.7143C21.7548 17 21.795 17.001 21.835 17.0032Z" fill="white" style="mix-blend-mode:overlay"/>
<path fill-rule="evenodd" clip-rule="evenodd" d="M20 12.835C18.252 12.835 16.835 14.252 16.835 16V17.5307C16.3253 17.9588 16 18.6076 16 19.3333V21.6666C16 22.9544 17.0242 24 18.2857 24H21.7143C22.9758 24 24 22.9544 24 21.6666V19.3333C24 18.6076 23.6747 17.9588 23.165 17.5307V16C23.165 14.252 21.748 12.835 20 12.835ZM21.835 17.0032V16C21.835 14.9865 21.0134 14.165 20 14.165C18.9866 14.165 18.165 14.9865 18.165 16V17.0032C18.205 17.001 18.2452 17 18.2857 17H21.7143C21.7548 17 21.795 17.001 21.835 17.0032Z" fill="white" fill-opacity="0.4" style="mix-blend-mode:overlay"/>
</svg>
