<svg width="20" height="19" viewBox="0 0 20 19" fill="none" xmlns="http://www.w3.org/2000/svg">
<path fill-rule="evenodd" clip-rule="evenodd" d="M0 6.38149C0 2.7012 2.58801 0 5.93594 0C7.57828 0 8.89997 0.716446 9.8327 1.8139C10.7705 0.713816 12.0873 0 13.733 0C17.0827 0 19.66 2.70315 19.66 6.38149C19.66 10.6522 16.1276 14.6289 11.1081 17.8615L11.1028 17.8649L11.1028 17.8649C10.9482 17.9628 10.7605 18.0706 10.5643 18.1566C10.3861 18.2347 10.1191 18.3323 9.83 18.3323C9.54201 18.3323 9.27489 18.2322 9.1024 18.1566C8.90939 18.072 8.72217 17.9661 8.56756 17.8713L8.55189 17.8615C3.5324 14.6289 0 10.6522 0 6.38149ZM5.93594 1.66C3.59872 1.66 1.66 3.52118 1.66 6.38149C1.66 9.73665 4.5047 13.2787 9.44262 16.4607C9.56146 16.5332 9.67441 16.5948 9.76899 16.6363C9.79464 16.6476 9.81597 16.656 9.83309 16.6622C9.85032 16.6561 9.87184 16.6477 9.8977 16.6363C9.99044 16.5957 10.1003 16.5348 10.2121 16.464C15.1533 13.2813 18 9.73784 18 6.38149C18 3.51923 16.0684 1.66 13.733 1.66C12.3189 1.66 11.2438 2.42182 10.5587 3.67794C10.4127 3.94548 10.1319 4.11154 9.82715 4.11049C9.5224 4.10944 9.24273 3.94147 9.09864 3.67293C8.43221 2.43095 7.35055 1.66 5.93594 1.66ZM9.87749 16.6759C9.87744 16.6759 9.87681 16.6758 9.8756 16.6756Z" fill="white"/>
</svg>
