<svg width="24" height="24" viewBox="0 0 24 24" fill="none" xmlns="http://www.w3.org/2000/svg">
<path d="M4.66504 14.2002C4.66504 15.0512 4.66596 15.6494 4.7041 16.1162C4.74161 16.5754 4.81216 16.8491 4.91992 17.0606C5.14371 17.4995 5.50053 17.8563 5.93945 18.0801C6.15095 18.1879 6.42468 18.2584 6.88379 18.2959C7.35064 18.3341 7.94888 18.335 8.79981 18.335H15.2002C16.0511 18.335 16.6494 18.3341 17.1162 18.2959C17.5753 18.2584 17.8491 18.1879 18.0605 18.0801C18.4995 17.8563 18.8563 17.4995 19.0801 17.0606C19.1878 16.8491 19.2584 16.5754 19.2959 16.1162C19.334 15.6494 19.335 15.0512 19.335 14.2002V11C19.335 10.0273 19.3297 9.67116 19.2559 9.39554C19.0399 8.58979 18.4102 7.9601 17.6045 7.74418C17.3289 7.67033 16.9728 7.66508 16 7.66508H12.4941C12.1591 7.66508 11.8831 7.6695 11.6162 7.60551C11.3953 7.55247 11.1839 7.46444 10.9902 7.34574C10.7563 7.20235 10.564 7.00451 10.3271 6.76762L9.69727 6.13773C9.4545 5.89496 9.39582 5.84096 9.33789 5.80277C9.24983 5.74486 9.15106 5.70402 9.04785 5.68265C8.97977 5.66859 8.90072 5.66508 8.55664 5.66508C7.82202 5.66508 7.30524 5.66574 6.90039 5.69437C6.50202 5.72256 6.26219 5.77583 6.0752 5.85648C5.52851 6.09244 5.0924 6.52855 4.85645 7.07523C4.77579 7.26223 4.72253 7.50204 4.69434 7.90043C4.6657 8.30528 4.66504 8.82204 4.66504 9.55668V14.2002ZM12 9.335C12.3672 9.33503 12.665 9.63279 12.665 10V14.3936L14.5293 12.5293C14.789 12.2697 15.211 12.2696 15.4707 12.5293C15.7304 12.789 15.7304 13.211 15.4707 13.4707L12.4707 16.4707C12.211 16.7304 11.789 16.7304 11.5293 16.4707L8.5293 13.4707L8.44434 13.3662C8.27383 13.1081 8.30203 12.7566 8.5293 12.5293C8.75657 12.3021 9.10809 12.2739 9.36621 12.4444L9.4707 12.5293L11.335 14.3936V10C11.335 9.63277 11.6327 9.335 12 9.335ZM20.665 14.2002C20.665 15.0292 20.6657 15.6911 20.6221 16.2246C20.5778 16.766 20.4848 17.2339 20.2656 17.6641C19.9143 18.3536 19.3536 18.9143 18.6641 19.2657C18.2338 19.4849 17.766 19.5779 17.2246 19.6221C16.691 19.6657 16.0292 19.6651 15.2002 19.6651H8.79981C7.97081 19.6651 7.30896 19.6657 6.77539 19.6221C6.23404 19.5779 5.76616 19.4849 5.33594 19.2657C4.64642 18.9143 4.08574 18.3536 3.73438 17.6641C3.51516 17.2339 3.42216 16.766 3.37793 16.2246C3.33434 15.6911 3.33496 15.0292 3.33496 14.2002V9.55668C3.33496 8.84099 3.33448 8.26933 3.36719 7.80668C3.40037 7.33776 3.46998 6.9298 3.63477 6.54789C4.00512 5.68981 4.68977 5.00516 5.54785 4.6348C5.92976 4.47002 6.33774 4.40041 6.80664 4.36722C7.26929 4.33451 7.84098 4.335 8.55664 4.335C8.84623 4.335 9.08437 4.33202 9.31641 4.37992C9.5843 4.43527 9.83979 4.54115 10.0684 4.69144C10.2663 4.82169 10.4329 4.99246 10.6377 5.1973L11.2676 5.82719C11.5486 6.10823 11.6161 6.1699 11.6846 6.21195C11.7593 6.25772 11.8416 6.29111 11.9268 6.31156C12.005 6.3303 12.0961 6.335 12.4941 6.335H16C16.887 6.335 17.4609 6.32949 17.9482 6.46C19.213 6.7989 20.2012 7.78704 20.54 9.05179C20.6706 9.53911 20.665 10.1131 20.665 11V14.2002Z" fill="black"/>
</svg>
