<svg width="22" height="22" viewBox="0 0 22 22" fill="none" xmlns="http://www.w3.org/2000/svg">
<rect width="22" height="22" rx="11" fill="url(#paint0_linear_0_3)"/>
<path fill-rule="evenodd" clip-rule="evenodd" d="M10.8351 15.3336C11.1171 15.1638 11.4698 15.1638 11.7519 15.3336L14.5953 17.045C15.2688 17.4504 16.0983 16.8463 15.9193 16.081L15.1664 12.8627C15.0911 12.5408 15.2007 12.2037 15.4508 11.9876L17.9565 9.82292C18.5521 9.30844 18.2346 8.3309 17.4504 8.26456L14.1484 7.9852C13.8202 7.95742 13.5342 7.75036 13.4053 7.44716L12.1115 4.40309C11.8049 3.68149 10.7821 3.68149 10.4754 4.40309L9.18166 7.44716C9.05279 7.75036 8.7668 7.95742 8.43852 7.9852L5.13659 8.26456C4.3524 8.3309 4.0349 9.30844 4.63043 9.82292L7.13613 11.9876C7.3863 12.2037 7.49586 12.5408 7.42056 12.8627L6.6677 16.081C6.48866 16.8463 7.31817 17.4504 7.99161 17.045L10.8351 15.3336Z" fill="white"/>
<defs>
<linearGradient id="paint0_linear_0_3" x1="18.3333" y1="2.93333" x2="3.3" y2="18.7" gradientUnits="userSpaceOnUse">
<stop stop-color="#7CD636"/>
<stop offset="1" stop-color="#26B470"/>
</linearGradient>
</defs>
</svg>
