<svg width="24" height="24" viewBox="0 0 24 24" fill="none" xmlns="http://www.w3.org/2000/svg">
<path fill-rule="evenodd" clip-rule="evenodd" d="M12.3672 7.01339V4.93582C12.3672 3.54513 12.3672 2.84978 12.6461 2.51578C12.8882 2.22574 13.2529 2.06671 13.6302 2.08657C14.0647 2.10943 14.5743 2.58253 15.5935 3.52874L22.4844 9.92631C23.011 10.4152 23.2743 10.6596 23.3719 10.9457C23.4578 11.197 23.4578 11.4697 23.3719 11.7211C23.2743 12.0072 23.011 12.2516 22.4844 12.7405L15.5935 19.138C14.5743 20.0842 14.0647 20.5573 13.6302 20.5802C13.2529 20.6001 12.8882 20.441 12.6461 20.151C12.3672 19.817 12.3672 19.1216 12.3672 17.7309V15.6534C6.97993 15.6534 3.71849 17.7586 1.90971 19.5691C1.1042 20.3754 0.70145 20.7786 0.513484 20.7859C0.33844 20.7927 0.20329 20.7259 0.102408 20.5827C-0.00592221 20.4289 0.060693 19.9321 0.193923 18.9386C0.788894 14.5017 3.15728 7.01339 12.3672 7.01339Z" fill="white"/>
</svg>
