<svg width="30" height="26" viewBox="0 0 30 26" fill="none" xmlns="http://www.w3.org/2000/svg">
<path fill-rule="evenodd" clip-rule="evenodd" d="M6 0C2.68628 0 0 2.68628 0 6V20.0024C0 23.316 2.68628 26.0024 6 26.0024H15.155C17.5853 26.0024 19.8838 24.8977 21.402 23L29.001 15.5012C30.1697 14.0403 30.1697 11.9645 29.001 10.5035L21.402 3.00244C19.8838 1.10474 17.5853 0 15.155 0H6ZM18 16C19.6569 16 21 14.6569 21 13C21 11.3431 19.6569 10 18 10C16.3431 10 15 11.3431 15 13C15 14.6569 16.3431 16 18 16Z" fill="white"/>
<circle cx="18" cy="13" r="3" fill="white" fill-opacity="0.5"/>
</svg>
