<svg width="24" height="24" viewBox="0 0 24 24" fill="none" xmlns="http://www.w3.org/2000/svg">
<path fill-rule="evenodd" clip-rule="evenodd" d="M5.62997 10.8C5.62997 7.94466 7.94466 5.62997 10.8 5.62997C13.6553 5.62997 15.97 7.94466 15.97 10.8C15.97 13.6553 13.6553 15.97 10.8 15.97C7.94466 15.97 5.62997 13.6553 5.62997 10.8ZM10.8 3.96997C7.02787 3.96997 3.96997 7.02787 3.96997 10.8C3.96997 14.5721 7.02787 17.63 10.8 17.63C12.3869 17.63 13.8474 17.0888 15.007 16.1808L19.0131 20.1869C19.3372 20.511 19.8627 20.511 20.1869 20.1869C20.511 19.8627 20.511 19.3372 20.1869 19.0131L16.1808 15.007C17.0888 13.8474 17.63 12.3869 17.63 10.8C17.63 7.02787 14.5721 3.96997 10.8 3.96997Z" fill="black"/>
</svg>
