<svg width="24" height="24" viewBox="0 0 24 24" fill="none" xmlns="http://www.w3.org/2000/svg">
<path fill-rule="evenodd" clip-rule="evenodd" d="M4.32031 8.32019C4.32031 6.52803 4.32031 5.63194 4.66909 4.94743C4.97589 4.34531 5.46542 3.85577 6.06754 3.54897C6.75206 3.2002 7.64814 3.2002 9.44031 3.2002H14.5603C16.3525 3.2002 17.2486 3.2002 17.9331 3.54897C18.5352 3.85577 19.0247 4.34531 19.3315 4.94743C19.6803 5.63194 19.6803 6.52803 19.6803 8.3202V18.3663C19.6803 19.656 19.6803 20.3008 19.4165 20.6298C19.187 20.9159 18.8394 21.0813 18.4727 21.079C18.0509 21.0763 17.5505 20.6697 16.5496 19.8565L13.0093 16.98C12.6496 16.6877 12.4698 16.5416 12.2699 16.4857C12.0936 16.4363 11.9071 16.4363 11.7308 16.4857C11.5308 16.5416 11.351 16.6877 10.9914 16.98L7.45105 19.8565C6.45015 20.6697 5.9497 21.0763 5.52797 21.079C5.16125 21.0813 4.8136 20.9159 4.58416 20.6298C4.32031 20.3008 4.32031 19.656 4.32031 18.3663L4.32031 8.32019Z" stroke="black" stroke-width="1.66" stroke-linecap="round"/>
</svg>
