<svg width="44" height="44" viewBox="0 0 44 44" fill="none" xmlns="http://www.w3.org/2000/svg">
<path fill-rule="evenodd" clip-rule="evenodd" d="M7.92057 15.2537C7.92057 11.968 7.92057 10.3252 8.56 9.07028C9.12246 7.9664 10.0199 7.06891 11.1238 6.50645C12.3788 5.86703 14.0216 5.86703 17.3072 5.86703H26.6939C29.9795 5.86703 31.6224 5.86703 32.8773 6.50645C33.9812 7.06891 34.8787 7.9664 35.4411 9.07028C36.0806 10.3252 36.0806 11.9681 36.0806 15.2537V33.6716C36.0806 36.0359 36.0806 37.2181 35.5968 37.8213C35.1762 38.3458 34.5388 38.6491 33.8665 38.6448C33.0933 38.6399 32.1759 37.8944 30.3409 36.4035L23.8503 31.1299C23.1909 30.5942 22.8613 30.3263 22.4947 30.2237C22.1715 30.1333 21.8296 30.1333 21.5064 30.2237C21.1399 30.3263 20.8102 30.5942 20.1508 31.1299L13.6603 36.4035C11.8253 37.8945 10.9078 38.6399 10.1346 38.6448C9.4623 38.6491 8.82493 38.3458 8.4043 37.8213C7.92057 37.2181 7.92057 36.0359 7.92057 33.6716L7.92057 15.2537Z" stroke="black" stroke-width="3.04" stroke-linecap="round"/>
</svg>
