<svg width="30" height="30" viewBox="0 0 30 30" fill="none" xmlns="http://www.w3.org/2000/svg">
<g clip-path="url(#clip0_1001_6956)">
<rect width="30" height="30" rx="7" fill="#FF9500"/>
<rect x="5" y="10" width="18" height="10" rx="3" stroke="white" stroke-width="1.66"/>
<path d="M24.5 12.5V17.5C25.5059 17.0765 26.16 16.0914 26.16 15C26.16 13.9086 25.5059 12.9235 24.5 12.5Z" fill="white"/>
<path d="M7 13.6C7 13.0399 7 12.7599 7.10899 12.546C7.20487 12.3578 7.35785 12.2049 7.54601 12.109C7.75992 12 8.03995 12 8.6 12H9.4C9.96005 12 10.2401 12 10.454 12.109C10.6422 12.2049 10.7951 12.3578 10.891 12.546C11 12.7599 11 13.0399 11 13.6V16.4C11 16.9601 11 17.2401 10.891 17.454C10.7951 17.6422 10.6422 17.7951 10.454 17.891C10.2401 18 9.96005 18 9.4 18H8.6C8.03995 18 7.75992 18 7.54601 17.891C7.35785 17.7951 7.20487 17.6422 7.10899 17.454C7 17.2401 7 16.9601 7 16.4V13.6Z" fill="white"/>
</g>
<defs>
<clipPath id="clip0_1001_6956">
<rect width="30" height="30" fill="white"/>
</clipPath>
</defs>
</svg>
