<svg width="30" height="30" viewBox="0 0 30 30" fill="none" xmlns="http://www.w3.org/2000/svg">
<path fill-rule="evenodd" clip-rule="evenodd" d="M14.0215 6.74537C13.9928 6.76196 13.9262 6.80388 13.8112 6.9001C13.5861 7.08859 13.2955 7.37806 12.8555 7.81805L9.51582 11.1577L9.48882 11.1848C9.38313 11.2908 9.2639 11.4104 9.1236 11.507C8.91149 11.6531 8.67096 11.7527 8.41771 11.7994C8.25019 11.8303 8.08131 11.8301 7.93161 11.8298H7.9316L7.89338 11.8298H7.49998C6.51658 11.8298 6.18769 11.8369 5.93835 11.9037C5.1895 12.1044 4.60458 12.6893 4.40393 13.4381C4.33711 13.6875 4.32998 14.0164 4.32998 14.9998C4.32998 15.9832 4.33711 16.3121 4.40393 16.5614C4.60458 17.3103 5.1895 17.8952 5.93835 18.0958C6.18769 18.1627 6.51658 18.1698 7.49998 18.1698H7.89338L7.93159 18.1697C8.0813 18.1695 8.25018 18.1692 8.41771 18.2001C8.67096 18.2468 8.91149 18.3465 9.1236 18.4925C9.2639 18.5891 9.38312 18.7087 9.48881 18.8148L9.48882 18.8148L9.51582 18.8418L12.8555 22.1815C13.2955 22.6215 13.5861 22.911 13.8112 23.0995C13.9262 23.1957 13.9928 23.2376 14.0215 23.2542C14.0516 23.2504 14.08 23.2386 14.104 23.2201C14.1125 23.188 14.13 23.1112 14.1433 22.9619C14.1692 22.6694 14.17 22.2593 14.17 21.637V8.36252C14.17 7.74028 14.1692 7.33012 14.1433 7.03763C14.13 6.88834 14.1125 6.81154 14.104 6.77951C14.08 6.761 14.0516 6.7492 14.0215 6.74537ZM13.8564 5.08964C14.4404 5.04367 15.0111 5.28006 15.3915 5.7255C15.6934 6.07892 15.7652 6.53495 15.7968 6.89111C15.83 7.266 15.83 7.75092 15.83 8.32317V8.32321V8.36252V21.637V21.6764V21.6764C15.83 22.2486 15.83 22.7336 15.7968 23.1085C15.7652 23.4646 15.6934 23.9206 15.3915 24.2741C15.0111 24.7195 14.4404 24.9559 13.8564 24.9099C13.3931 24.8735 13.0198 24.6018 12.7456 24.3723C12.457 24.1307 12.1141 23.7878 11.7095 23.3831L11.6817 23.3553L8.34202 20.0156C8.27117 19.9448 8.23288 19.9066 8.20321 19.879C8.19006 19.8667 8.18292 19.8607 8.18011 19.8584C8.16161 19.846 8.14087 19.8374 8.11905 19.8331C8.11543 19.8327 8.10609 19.832 8.08813 19.8313C8.04761 19.8299 7.99358 19.8298 7.89338 19.8298H7.49998L7.37661 19.8298C6.5664 19.8301 5.9979 19.8304 5.50871 19.6993C4.18701 19.3451 3.15464 18.3128 2.80049 16.9911C2.66941 16.5019 2.66963 15.9334 2.66995 15.1232L2.66998 14.9998L2.66995 14.8764C2.66963 14.0662 2.66941 13.4977 2.80049 13.0085C3.15464 11.6868 4.18701 10.6544 5.50871 10.3003C5.9979 10.1692 6.56639 10.1694 7.3766 10.1697L7.49998 10.1698H7.89338C7.99358 10.1698 8.04762 10.1697 8.08813 10.1682C8.10609 10.1676 8.11544 10.1668 8.11906 10.1665C8.14087 10.1621 8.16161 10.1535 8.18012 10.1412C8.18293 10.1389 8.19006 10.1328 8.20321 10.1206C8.23288 10.0929 8.27117 10.0548 8.34202 9.98395L11.6817 6.64426L11.7095 6.61647C12.1141 6.2118 12.457 5.86888 12.7456 5.62727C13.0198 5.39775 13.3931 5.1261 13.8564 5.08964ZM19.3298 9.91991C19.7006 9.65047 20.2197 9.73268 20.4891 10.1035C21.5231 11.5267 22.08 13.2407 22.08 14.9998C22.08 16.7589 21.5231 18.4729 20.4891 19.896C20.2197 20.2669 19.7006 20.3491 19.3298 20.0797C18.9589 19.8102 18.8767 19.2912 19.1461 18.9203C19.9741 17.7808 20.42 16.4083 20.42 14.9998C20.42 13.5912 19.9741 12.2188 19.1461 11.0793C18.8767 10.7084 18.9589 10.1893 19.3298 9.91991ZM24.5342 7.16461C24.2647 6.79376 23.7457 6.71155 23.3748 6.98098C23.004 7.25042 22.9218 7.76948 23.1912 8.14033C24.6398 10.1341 25.42 12.5353 25.42 14.9998C25.42 17.4642 24.6398 19.8654 23.1912 21.8592C22.9218 22.2301 23.004 22.7491 23.3748 23.0186C23.7457 23.288 24.2647 23.2058 24.5342 22.835C26.1888 20.5576 27.08 17.8148 27.08 14.9998C27.08 12.1848 26.1888 9.44201 24.5342 7.16461Z" fill="white"/>
</svg>
