<svg width="30" height="30" viewBox="0 0 30 30" fill="none" xmlns="http://www.w3.org/2000/svg">
<g clip-path="url(#clip0_1001_6284)">
<rect width="30" height="30" rx="7" fill="#34C759"/>
<path fill-rule="evenodd" clip-rule="evenodd" d="M6.43597 8.18404C6 9.03969 6 10.1598 6 12.4V18.4615C6 19.893 6 20.6088 6.18112 21.19C6.5722 22.445 7.55496 23.4278 8.80999 23.8189C9.39121 24 10.107 24 11.5385 24C13.1328 24 14.3326 24 15.2964 23.9506C15.3921 23.9348 15.4582 23.9152 15.5109 23.8934C15.838 23.7579 16.0979 23.498 16.2334 23.1709C16.2699 23.0827 16.3006 22.9538 16.3175 22.7034C16.3347 22.4478 16.335 22.1181 16.335 21.6347V21.6094C16.335 20.9795 16.335 20.4582 16.3563 20.0232C15.9279 20.1188 15.4749 20.165 15 20.165C13.5668 20.165 12.4323 19.5912 11.6714 19.0378C11.2896 18.7602 10.9945 18.4826 10.7933 18.2726C10.6924 18.1673 10.6143 18.0782 10.56 18.0134C10.5328 17.981 10.5114 17.9546 10.4961 17.9352L10.4775 17.9115L10.4716 17.9038L10.4695 17.901L10.4687 17.8999L10.4683 17.8994C10.4682 17.8992 10.468 17.899 11 17.5L11.532 17.101L11.5317 17.1006L11.5388 17.1097C11.5467 17.1196 11.56 17.1362 11.5787 17.1584C11.6161 17.203 11.6748 17.2702 11.7536 17.3524C11.9117 17.5174 12.1479 17.7398 12.4536 17.9622C13.0677 18.4088 13.9332 18.835 15 18.835C15.6301 18.835 16.171 18.7359 16.6335 18.5514C16.639 18.5385 16.6446 18.5256 16.6503 18.5128C17.0189 17.6826 17.6826 17.0189 18.5128 16.6503C18.904 16.4766 19.3255 16.4037 19.8116 16.369C20.2865 16.335 20.8739 16.335 21.6094 16.335H21.6347C22.1181 16.335 22.4478 16.3347 22.7034 16.3175C22.9538 16.3006 23.0827 16.2699 23.1709 16.2334C23.498 16.0979 23.7579 15.838 23.8934 15.5109C23.9152 15.4582 23.9348 15.3921 23.9506 15.2964C24 14.3326 24 13.1328 24 11.5385C24 10.107 24 9.39121 23.8189 8.80999C23.4278 7.55496 22.445 6.5722 21.19 6.18112C20.6088 6 19.893 6 18.4615 6H12.4C10.1598 6 9.03969 6 8.18404 6.43597C7.43139 6.81947 6.81947 7.43139 6.43597 8.18404ZM23.6521 17.4734C23.3812 17.5808 23.098 17.6239 22.7926 17.6445C22.487 17.665 22.1125 17.665 21.6574 17.665H21.6347C20.8682 17.665 20.3283 17.6654 19.9064 17.6956C19.4903 17.7253 19.2426 17.7815 19.0525 17.8659C18.5236 18.1007 18.1007 18.5236 17.8659 19.0525C17.7815 19.2426 17.7253 19.4903 17.6956 19.9064C17.6654 20.3283 17.665 20.8682 17.665 21.6347V21.6574C17.665 22.1125 17.665 22.487 17.6445 22.7926C17.6239 23.098 17.5808 23.3812 17.4734 23.6521C17.5423 23.6333 17.6103 23.6134 17.6775 23.5925C20.5013 22.7126 22.7126 20.5013 23.5925 17.6775C23.6134 17.6103 23.6333 17.5423 23.6521 17.4734ZM11.5316 17.1004C11.3111 16.8071 10.8946 16.7478 10.601 16.968C10.3072 17.1884 10.2476 17.6052 10.468 17.899L11 17.5C11.532 17.101 11.5318 17.1008 11.5317 17.1006L11.5316 17.1004ZM13.5 12.8125C13.5 13.6754 12.9404 14.375 12.25 14.375C11.5596 14.375 11 13.6754 11 12.8125C11 11.9496 11.5596 11.25 12.25 11.25C12.9404 11.25 13.5 11.9496 13.5 12.8125ZM19 12.8125C19 13.6754 18.4404 14.375 17.75 14.375C17.0596 14.375 16.5 13.6754 16.5 12.8125C16.5 11.9496 17.0596 11.25 17.75 11.25C18.4404 11.25 19 11.9496 19 12.8125Z" fill="white"/>
</g>
<defs>
<clipPath id="clip0_1001_6284">
<rect width="30" height="30" fill="white"/>
</clipPath>
</defs>
</svg>
