<svg width="24" height="24" viewBox="0 0 24 24" fill="none" xmlns="http://www.w3.org/2000/svg">
<path fill-rule="evenodd" clip-rule="evenodd" d="M4.47024 3.52973C4.21054 3.27004 3.78948 3.27004 3.52979 3.52973C3.27009 3.78943 3.27009 4.21049 3.52979 4.47019L19.5298 20.4702C19.7895 20.7299 20.2105 20.7299 20.4702 20.4702C20.7299 20.2105 20.7299 19.7894 20.4702 19.5297L17.4681 16.5276C19.2332 15.3101 20.384 13.7481 20.9455 12.8656C21.3679 12.2017 21.3532 11.361 20.8984 10.7134C19.8408 9.20775 16.8814 5.73438 12.0002 5.73438C10.334 5.73438 8.89172 6.13908 7.67259 6.73209L4.47024 3.52973ZM8.67783 7.73733L9.87465 8.93415C10.4777 8.51528 11.2102 8.26977 12.0001 8.26977C14.0601 8.26977 15.7301 9.93974 15.7301 11.9998C15.7301 12.7896 15.4846 13.5221 15.0657 14.1252L16.5091 15.5686C18.1655 14.4907 19.2662 13.0274 19.8234 12.1516C19.9591 11.9382 19.9529 11.6812 19.81 11.4779C18.82 10.0684 16.2073 7.06438 12.0002 7.06438C10.7522 7.06438 9.64448 7.3287 8.67783 7.73733ZM14.1011 13.1606C14.2916 12.8166 14.4001 12.4209 14.4001 11.9998C14.4001 10.6743 13.3255 9.59977 12.0001 9.59977C11.579 9.59977 11.1832 9.70821 10.8392 9.89869L14.1011 13.1606ZM5.77358 7.91384C4.47869 8.91015 3.58879 10.0203 3.10194 10.7134C2.64713 11.361 2.63243 12.2017 3.05484 12.8656C4.0682 14.4583 7.00115 18.2644 12.0002 18.2644C13.2924 18.2644 14.4465 18.0101 15.4651 17.6054L14.4231 16.5634C13.6864 16.7961 12.879 16.9344 12.0002 16.9344C7.72658 16.9344 5.14002 13.6652 4.17696 12.1516C4.04117 11.9382 4.04746 11.6812 4.1903 11.4779C4.66401 10.8034 5.50924 9.76394 6.72289 8.86315L5.77358 7.91384ZM8.51844 10.6586C8.35801 11.0748 8.27006 11.527 8.27006 11.9998C8.27006 14.0598 9.94004 15.7298 12.0001 15.7298C12.4728 15.7298 12.925 15.6418 13.3412 15.4814L12.2471 14.3872C12.1659 14.3955 12.0835 14.3998 12.0001 14.3998C10.6746 14.3998 9.60006 13.3252 9.60006 11.9998C9.60006 11.9164 9.60431 11.834 9.61262 11.7528L8.51844 10.6586Z" fill="white"/>
</svg>
