<svg width="72" height="72" viewBox="0 0 72 72" fill="none" xmlns="http://www.w3.org/2000/svg">
<path fill-rule="evenodd" clip-rule="evenodd" d="M13.1284 10.8718C12.5052 10.2485 11.4946 10.2485 10.8714 10.8718C10.2481 11.495 10.2481 12.5056 10.8714 13.1288L58.8714 61.1288C59.4946 61.7521 60.5052 61.7521 61.1284 61.1288C61.7517 60.5056 61.7517 59.495 61.1284 58.8718L50.6296 48.3729C55.9529 44.901 59.4407 40.2205 61.1539 37.5281C61.9912 36.2121 61.9597 34.5655 61.0632 33.2891C57.9919 28.9164 49.6337 19.2003 36.0011 19.2003C31.4602 19.2003 27.5045 20.2783 24.1344 21.8777L13.1284 10.8718ZM28.7186 26.4619L32.1637 29.907C33.2746 29.206 34.5904 28.8003 36.0011 28.8003C39.9775 28.8003 43.2011 32.0238 43.2011 36.0003C43.2011 37.4109 42.7954 38.7268 42.0944 39.8377L45.5395 43.2828C47.0837 41.2633 48.0011 38.7389 48.0011 36.0003C48.0011 29.3729 42.6285 24.0003 36.0011 24.0003C33.2625 24.0003 30.7381 24.9177 28.7186 26.4619ZM10.939 33.2891C12.4199 31.1807 15.13 27.83 19.0678 24.9252L25.1061 30.9636C24.3969 32.4951 24.0011 34.2015 24.0011 36.0003C24.0011 42.6277 29.3737 48.0003 36.0011 48.0003C37.7999 48.0003 39.5063 47.6045 41.0378 46.8953L45.2588 51.1163C42.5113 52.1564 39.427 52.8003 36.0011 52.8003C22.0922 52.8003 13.8129 42.1874 10.8483 37.5281C10.011 36.2121 10.0425 34.5655 10.939 33.2891ZM28.8011 36.0003C28.8011 35.5788 28.8373 35.1658 28.9068 34.7642L37.2372 43.0946C36.8356 43.1641 36.4226 43.2003 36.0011 43.2003C32.0246 43.2003 28.8011 39.9767 28.8011 36.0003Z" fill="white"/>
</svg>
