<svg width="30" height="30" viewBox="0 0 30 30" fill="none" xmlns="http://www.w3.org/2000/svg">
<g clip-path="url(#clip0_1001_6126)">
<rect width="30" height="30" rx="7" fill="#007AFF"/>
<path fill-rule="evenodd" clip-rule="evenodd" d="M6.32698 7.63803C6 8.27976 6 9.11984 6 10.8V16.1264L8.71931 13.1979L8.73937 13.1763L8.7394 13.1762L8.73942 13.1762C8.92579 12.9755 9.09907 12.7889 9.25684 12.6452C9.42696 12.4903 9.63591 12.3309 9.90879 12.2377C10.2921 12.1069 10.7079 12.1069 11.0912 12.2377C11.3641 12.3309 11.573 12.4903 11.7432 12.6452C11.9009 12.7889 12.0742 12.9755 12.2606 13.1763L12.2807 13.1979L16.3929 17.6264L17.7193 16.1979L17.7394 16.1763C17.9258 15.9755 18.0991 15.7889 18.2568 15.6452C18.427 15.4903 18.6359 15.3309 18.9088 15.2377C19.2921 15.1069 19.7079 15.1069 20.0912 15.2377C20.3641 15.3309 20.573 15.4903 20.7432 15.6452C20.9009 15.7889 21.0742 15.9755 21.2606 16.1763L21.2606 16.1763L21.2807 16.1979L24 19.1264V10.8C24 9.11984 24 8.27976 23.673 7.63803C23.3854 7.07354 22.9265 6.6146 22.362 6.32698C21.7202 6 20.8802 6 19.2 6H10.8C9.11984 6 8.27976 6 7.63803 6.32698C7.07354 6.6146 6.6146 7.07354 6.32698 7.63803ZM22.1086 23.7817L17.5255 18.8462L18.9357 17.3274C19.1491 17.0977 19.2745 16.9636 19.3744 16.8727C19.4192 16.8319 19.4453 16.8128 19.4564 16.8053C19.485 16.7977 19.515 16.7977 19.5436 16.8053C19.5547 16.8128 19.5808 16.8319 19.6256 16.8727C19.7255 16.9636 19.8509 17.0977 20.0643 17.3274L23.9254 21.4856C23.8779 21.8329 23.8002 22.1124 23.673 22.362C23.3854 22.9265 22.9265 23.3854 22.362 23.673C22.2811 23.7142 22.197 23.7503 22.1086 23.7817ZM20.044 23.998L11.0643 14.3274C10.8509 14.0977 10.7255 13.9636 10.6256 13.8727C10.5808 13.8319 10.5547 13.8128 10.5436 13.8053C10.515 13.7977 10.485 13.7977 10.4564 13.8053C10.4453 13.8128 10.4192 13.8319 10.3744 13.8727C10.2745 13.9636 10.1491 14.0977 9.93575 14.3274L6 18.5659V19.2C6 20.8802 6 21.7202 6.32698 22.362C6.6146 22.9265 7.07354 23.3854 7.63803 23.673C8.27976 24 9.11984 24 10.8 24H19.2C19.5083 24 19.7883 24 20.044 23.998ZM19.5 12C20.3284 12 21 11.3284 21 10.5C21 9.67157 20.3284 9 19.5 9C18.6716 9 18 9.67157 18 10.5C18 11.3284 18.6716 12 19.5 12Z" fill="white"/>
</g>
<defs>
<clipPath id="clip0_1001_6126">
<rect width="30" height="30" fill="white"/>
</clipPath>
</defs>
</svg>
