<svg width="24" height="24" viewBox="0 0 24 24" fill="none" xmlns="http://www.w3.org/2000/svg">
<path fill-rule="evenodd" clip-rule="evenodd" d="M11.7635 4.66876C11.842 4.66627 11.9208 4.66502 12 4.66502C12.2275 4.66502 12.4524 4.67536 12.6744 4.69557C13.0401 4.72887 13.3636 4.45936 13.3969 4.09361C13.4302 3.72785 13.1607 3.40435 12.795 3.37105C12.533 3.3472 12.2678 3.33502 12 3.33502C11.9012 3.33502 11.8028 3.33667 11.7048 3.33995C9.50354 3.41363 7.51029 4.30838 6.02163 5.7277C5.90873 5.83534 5.79874 5.94599 5.69177 6.05953C4.28989 7.54763 3.4087 9.53174 3.33938 11.7207C3.33644 11.8134 3.33496 11.9066 3.33496 12C3.33496 12.0982 3.33659 12.196 3.33983 12.2934C3.41063 14.4212 4.2486 16.3547 5.58597 17.8262C5.78988 18.0505 6.00541 18.2641 6.23159 18.4661C7.6731 19.7529 9.54763 20.5649 11.6095 20.6564C11.7389 20.6621 11.8691 20.665 12 20.665C12.2678 20.665 12.533 20.6528 12.795 20.629C13.1607 20.5957 13.4302 20.2722 13.3969 19.9064C13.3636 19.5407 13.0401 19.2712 12.6744 19.3045C12.4524 19.3247 12.2275 19.335 12 19.335C11.8813 19.335 11.7633 19.3322 11.646 19.3266C9.88642 19.243 8.28926 18.5394 7.06807 17.4295C6.87365 17.2528 6.68876 17.0658 6.51426 16.8694C5.41246 15.629 4.72495 14.0124 4.6687 12.2365C4.66621 12.158 4.66496 12.0791 4.66496 12C4.66496 11.9159 4.66638 11.8322 4.66918 11.7488C4.73083 9.91731 5.4639 8.25606 6.63004 7.00336C6.76152 6.86212 6.89851 6.72607 7.04066 6.59556C8.29233 5.44639 9.94435 4.72638 11.7635 4.66876ZM17.5392 5.33648C17.2569 5.10156 16.8376 5.13998 16.6027 5.4223C16.3677 5.70461 16.4062 6.12391 16.6885 6.35882C17.0343 6.64663 17.3534 6.96564 17.6412 7.31151C17.8761 7.59382 18.2954 7.63225 18.5777 7.39733C18.86 7.16241 18.8984 6.74311 18.6635 6.4608C18.3238 6.05261 17.9474 5.67614 17.5392 5.33648ZM20.6289 11.205C20.5956 10.8393 20.2721 10.5698 19.9064 10.6031C19.5406 10.6364 19.2711 10.9599 19.3044 11.3256C19.3246 11.5475 19.335 11.7725 19.335 12C19.335 12.2276 19.3246 12.4525 19.3044 12.6744C19.2711 13.0402 19.5406 13.3637 19.9064 13.397C20.2721 13.4303 20.5956 13.1608 20.6289 12.795C20.6528 12.5331 20.665 12.2679 20.665 12C20.665 11.7322 20.6528 11.467 20.6289 11.205ZM18.6635 17.5392C18.8984 17.2569 18.86 16.8376 18.5777 16.6027C18.2954 16.3678 17.8761 16.4062 17.6412 16.6885C17.3534 17.0344 17.0343 17.3534 16.6885 17.6412C16.4062 17.8761 16.3677 18.2954 16.6027 18.5777C16.8376 18.8601 17.2569 18.8985 17.5392 18.6636C17.9474 18.3239 18.3238 17.9474 18.6635 17.5392Z" fill="white"/>
</svg>
