<svg width="56" height="56" viewBox="0 0 56 56" fill="none" xmlns="http://www.w3.org/2000/svg">
<path fill-rule="evenodd" clip-rule="evenodd" d="M0 14.8492C0 12.2016 0 10.8779 0.20805 9.77516C1.12392 4.92093 4.92093 1.12392 9.77516 0.208051C10.8779 4.02331e-07 12.2016 0 14.8492 0H16.7574C19.4739 0 22.0791 1.07913 24 3C25.9209 4.92087 28.5261 6 31.2426 6H36.8C43.5206 6 46.8809 6 49.4479 7.30792C51.7058 8.4584 53.5416 10.2942 54.6921 12.5521C56 15.1191 56 18.4794 56 25.2V36.8C56 43.5206 56 46.8809 54.6921 49.4479C53.5416 51.7058 51.7058 53.5416 49.4479 54.6921C46.8809 56 43.5206 56 36.8 56H19.2C12.4794 56 9.11906 56 6.55211 54.6921C4.29417 53.5416 2.4584 51.7058 1.30792 49.4479C0 46.8809 0 43.5206 0 36.8V14.8492Z" fill="black"/>
</svg>
