<svg width="24" height="24" viewBox="0 0 24 24" fill="none" xmlns="http://www.w3.org/2000/svg">
<path d="M14 0.834961C15.4718 0.834983 16.665 2.02817 16.665 3.5C16.665 3.98684 16.5327 4.44219 16.3047 4.83496H16.875C17.3894 4.83496 17.8128 4.83493 18.1572 4.86133C18.5086 4.88828 18.8326 4.94562 19.1396 5.09082C19.6969 5.35442 20.1456 5.80313 20.4092 6.36035C20.5544 6.66735 20.6117 6.99135 20.6387 7.34277C20.6651 7.68718 20.665 8.11058 20.665 8.625C20.665 8.92954 20.6652 9.19587 20.6484 9.41504C20.6311 9.64112 20.5931 9.87197 20.4863 10.0977C20.312 10.4663 20.0208 10.7655 19.6602 10.9531C19.6612 10.9687 19.665 10.9842 19.665 11V12C19.665 12.3672 19.3672 12.665 19 12.665C18.6327 12.665 18.335 12.3673 18.335 12V11.1641C18.2672 11.1643 18.1972 11.165 18.125 11.165H12.665V19L12.6543 19.1182C12.6538 19.1209 12.6519 19.1233 12.6514 19.126C12.6495 19.1359 12.6469 19.1455 12.6445 19.1553C12.6368 19.1876 12.6266 19.2187 12.6143 19.249C12.6101 19.2593 12.6053 19.2692 12.6006 19.2793C12.589 19.3042 12.577 19.3285 12.5625 19.3516C12.5527 19.3673 12.5413 19.3817 12.5303 19.3965C12.5165 19.4149 12.5019 19.4324 12.4863 19.4492C12.4758 19.4606 12.4654 19.4718 12.4541 19.4824C12.4374 19.4982 12.4197 19.5124 12.4014 19.5264C12.386 19.5381 12.3709 19.5501 12.3545 19.5605C12.3329 19.5742 12.3102 19.5855 12.2871 19.5967C12.2757 19.6022 12.2647 19.6084 12.2529 19.6133C12.2147 19.6291 12.1752 19.6429 12.1338 19.6514L12 19.665H8.2002C7.65114 19.665 7.19889 19.6657 6.83203 19.6357C6.45755 19.6051 6.11321 19.5396 5.79004 19.375C5.2886 19.1195 4.8805 18.7114 4.625 18.21C4.46036 17.8868 4.39487 17.5425 4.36426 17.168C4.33428 16.8011 4.33496 16.3489 4.33496 15.7998V11C4.33496 10.9842 4.33778 10.9686 4.33887 10.9531C3.97859 10.7655 3.68793 10.466 3.51367 10.0977C3.40693 9.87197 3.36892 9.64112 3.35156 9.41504C3.33476 9.19587 3.33496 8.92954 3.33496 8.625C3.33496 8.11058 3.33493 7.68718 3.36133 7.34277C3.38827 6.99134 3.44562 6.66736 3.59082 6.36035C3.85442 5.80311 4.30311 5.35442 4.86035 5.09082C5.16736 4.94562 5.49134 4.88827 5.84277 4.86133C6.18718 4.83493 6.61058 4.83496 7.125 4.83496H7.69531C7.46729 4.44218 7.33497 3.98686 7.33496 3.5C7.33496 2.02816 8.52816 0.834961 10 0.834961C10.7976 0.834972 11.5116 1.18691 12 1.74219C12.4884 1.18693 13.2024 0.834961 14 0.834961ZM5.66504 15.7998C5.66504 16.3708 5.66591 16.7594 5.69043 17.0596C5.71432 17.3518 5.75729 17.5019 5.81055 17.6064C5.9385 17.8574 6.14262 18.0615 6.39355 18.1895C6.49807 18.2427 6.6482 18.2857 6.94043 18.3096C7.24057 18.3341 7.6292 18.335 8.2002 18.335H11.335V11.165H5.875C5.80284 11.165 5.73279 11.1643 5.66504 11.1641V15.7998ZM12.665 9.83496H18.125C18.4498 9.83496 18.656 9.83423 18.8125 9.82227C18.9615 9.81084 19.0104 9.79164 19.0283 9.7832C19.1402 9.73028 19.2303 9.6402 19.2832 9.52832C19.2916 9.51042 19.3108 9.46147 19.3223 9.3125C19.3342 9.15601 19.335 8.94976 19.335 8.625C19.335 8.09005 19.3341 7.72612 19.3125 7.44434C19.2915 7.1702 19.2537 7.0286 19.207 6.92969C19.075 6.6505 18.8495 6.42503 18.5703 6.29297C18.4714 6.24628 18.3298 6.20853 18.0557 6.1875C17.7739 6.1659 17.41 6.16504 16.875 6.16504H12.665V9.83496ZM7.125 6.16504C6.59005 6.16504 6.22612 6.1659 5.94434 6.1875C5.67018 6.20853 5.5286 6.24628 5.42969 6.29297C5.15048 6.42502 4.92502 6.65048 4.79297 6.92969C4.74628 7.0286 4.70853 7.17018 4.6875 7.44434C4.6659 7.72612 4.66504 8.09005 4.66504 8.625C4.66504 8.94976 4.66577 9.15601 4.67773 9.3125C4.68916 9.46146 4.70836 9.51042 4.7168 9.52832C4.76972 9.64019 4.8598 9.73029 4.97168 9.7832C4.98962 9.79165 5.03863 9.81085 5.1875 9.82227C5.34399 9.83423 5.55025 9.83496 5.875 9.83496H11.335V6.16504H7.125ZM10 2.16504C9.2627 2.16504 8.66504 2.7627 8.66504 3.5C8.66506 4.23728 9.26271 4.83496 10 4.83496H11.335V3.5C11.335 2.76271 10.7373 2.16506 10 2.16504ZM14 2.16504C13.2627 2.16504 12.665 2.7627 12.665 3.5V4.83496H14C14.7373 4.83494 15.3349 4.23727 15.335 3.5C15.335 2.76271 14.7373 2.16506 14 2.16504Z" fill="black"/>
<path d="M19 14.335C19.3673 14.335 19.665 14.6327 19.665 15V18.335H23L23.1338 18.3486C23.4369 18.4106 23.665 18.6786 23.665 19C23.665 19.3214 23.4369 19.5894 23.1338 19.6514L23 19.665H19.665V23C19.665 23.3672 19.3672 23.665 19 23.665C18.6327 23.665 18.335 23.3673 18.335 23V19.665H15C14.6327 19.665 14.335 19.3673 14.335 19C14.335 18.6327 14.6327 18.335 15 18.335H18.335V15C18.335 14.6327 18.6327 14.335 19 14.335Z" fill="black"/>
</svg>
