<svg width="30" height="30" viewBox="0 0 30 30" fill="none" xmlns="http://www.w3.org/2000/svg">
<g clip-path="url(#clip0_310_1045)">
<rect width="30" height="30" rx="7" fill="#5AC8FA"/>
<path fill-rule="evenodd" clip-rule="evenodd" d="M9 13C11.2091 13 13 11.2091 13 9C13 6.79086 11.2091 5 9 5C6.79086 5 5 6.79086 5 9C5 11.2091 6.79086 13 9 13ZM9 25C11.2091 25 13 23.2091 13 21C13 18.7909 11.2091 17 9 17C6.79086 17 5 18.7909 5 21C5 23.2091 6.79086 25 9 25ZM15 19C15 18.4477 15.4477 18 16 18H24C24.5523 18 25 18.4477 25 19C25 19.5523 24.5523 20 24 20H16C15.4477 20 15 19.5523 15 19ZM16 6C15.4477 6 15 6.44772 15 7C15 7.55228 15.4477 8 16 8H24C24.5523 8 25 7.55228 25 7C25 6.44772 24.5523 6 24 6H16ZM15 23C15 22.4477 15.4477 22 16 22H21C21.5523 22 22 22.4477 22 23C22 23.5523 21.5523 24 21 24H16C15.4477 24 15 23.5523 15 23ZM16 10C15.4477 10 15 10.4477 15 11C15 11.5523 15.4477 12 16 12H21C21.5523 12 22 11.5523 22 11C22 10.4477 21.5523 10 21 10H16Z" fill="white"/>
</g>
<defs>
<clipPath id="clip0_310_1045">
<rect width="30" height="30" fill="white"/>
</clipPath>
</defs>
</svg>
