<?xml version="1.0" encoding="UTF-8"?>
<svg width="72px" height="72px" viewBox="0 0 72 72" version="1.1" xmlns="http://www.w3.org/2000/svg" xmlns:xlink="http://www.w3.org/1999/xlink">
    <title>Badge / level3_outer</title>
    <g id="Badge-/-level3_outer" stroke="none" stroke-width="1" fill="none" fill-rule="evenodd">
        <path d="M41.0056106,61.8327419 C46.6699888,58.2185305 51.5014519,52.9409499 55.5,46 C59.0431255,39.8496034 61.4907225,33.435796 62.842791,26.7585779 L63.0003148,25.956148 C63.9174844,21.0911212 60.9234863,16.3431744 56.1381952,15.0740506 C49.6626738,13.3578332 42.9013708,12.5 35.8544323,12.5 C29.0304059,12.5 22.5198632,13.3044208 16.3228042,14.9132624 L15.4398147,15.1491982 C10.8691231,16.399576 7.93181443,20.8424697 8.57171471,25.5377007 C9.57366173,32.9008811 11.8831564,39.7216385 15.5,46 C19.4342778,52.8293852 24.6395156,58.1616091 31.1157135,61.9966718 C34.0865037,63.757244 37.7725344,63.750645 40.7310338,62.0026676 L41.0056106,61.8327419 Z" id="Polygon" fill="#FFFFFF"></path>
    </g>
</svg>