<?xml version="1.0" encoding="UTF-8"?>
<svg width="72px" height="72px" viewBox="0 0 72 72" version="1.1" xmlns="http://www.w3.org/2000/svg" xmlns:xlink="http://www.w3.org/1999/xlink">
    <title>Badge / level80_outer</title>
    <g id="Badge-/-level80_outer" stroke="none" stroke-width="1" fill="none" fill-rule="evenodd">
        <path d="M42.9915498,9.39502532 L46.5367242,12.6723316 C46.6917717,12.815664 46.8876934,12.9070237 47.097155,12.9336648 L51.8865114,13.5428141 C56.255695,14.0985223 59.5835361,17.7302236 59.7563303,22.1312143 L59.9457416,26.9554366 C59.9540255,27.1664231 60.0279619,27.3695617 60.1572356,27.5365115 L63.1130884,31.3538315 C65.8096226,34.8362559 65.5947611,39.7573955 62.6049747,42.9915498 L59.3276684,46.5367242 C59.184336,46.6917717 59.0929763,46.8876934 59.0663352,47.097155 L58.4571859,51.8865114 C57.9014777,56.255695 54.2697764,59.5835361 49.8687857,59.7563303 L45.0445634,59.9457416 C44.8335769,59.9540255 44.6304383,60.0279619 44.4634885,60.1572356 L40.6461685,63.1130884 C37.1637441,65.8096226 32.2426045,65.5947611 29.0084502,62.6049747 L25.4632758,59.3276684 C25.3082283,59.184336 25.1123066,59.0929763 24.902845,59.0663352 L20.1134886,58.4571859 C15.744305,57.9014777 12.4164639,54.2697764 12.2436697,49.8687857 L12.0542584,45.0445634 C12.0459745,44.8335769 11.9720381,44.6304383 11.8427644,44.4634885 L8.88691157,40.6461685 C6.19037735,37.1637441 6.40523895,32.2426045 9.39502532,29.0084502 L12.6723316,25.4632758 C12.815664,25.3082283 12.9070237,25.1123066 12.9336648,24.902845 L13.5428141,20.1134886 C14.0985223,15.744305 17.7302236,12.4164639 22.1312143,12.2436697 L26.9554366,12.0542584 C27.1664231,12.0459745 27.3695617,11.9720381 27.5365115,11.8427644 L31.3538315,8.88691157 C34.8362559,6.19037735 39.7573955,6.40523895 42.9915498,9.39502532 Z" id="Path" fill="#FFFFFF"></path>
    </g>
</svg>