<?xml version="1.0" encoding="UTF-8"?>
<svg width="72px" height="72px" viewBox="0 0 72 72" version="1.1" xmlns="http://www.w3.org/2000/svg" xmlns:xlink="http://www.w3.org/1999/xlink">
    <title>Badge / level40_outer</title>
    <g id="Badge-/-level40_outer" stroke="none" stroke-width="1" fill="none" fill-rule="evenodd">
        <path d="M39.7994267,7.9403781 L48.107,14.738 L57.4759129,13.0660262 C60.6638802,12.4967464 63.7129607,14.5584268 64.3936061,17.6971399 L64.4372222,17.9178478 C64.5613358,18.6128839 64.5618035,19.324371 64.4386037,20.0195696 L59.1089656,50.0939559 C58.0934629,55.8242927 53.1126942,60 47.2930717,60 L24.7069283,60 C18.8873058,60 13.9065371,55.8242927 12.8910344,50.0939559 L7.5613963,20.0195696 C6.98316635,16.7567006 9.15949631,13.6428747 12.4223653,13.0646447 C13.1175639,12.941445 13.829051,12.9419126 14.5240871,13.0660262 L23.892,14.738 L32.2005733,7.9403781 C34.4107686,6.13203649 37.5892314,6.13203649 39.7994267,7.9403781 Z" id="Path" fill="#FFFFFF"></path>
    </g>
</svg>