<?xml version="1.0" encoding="UTF-8"?>
<svg width="72px" height="72px" viewBox="0 0 72 72" version="1.1" xmlns="http://www.w3.org/2000/svg" xmlns:xlink="http://www.w3.org/1999/xlink">
    <title>Badge / level7_outer</title>
    <g id="Badge-/-level7_outer" stroke="none" stroke-width="1" fill="none" fill-rule="evenodd">
        <path d="M28.4889407,9.99982941 L43.719244,10.0775052 C46.4412057,10.0913366 49.0016774,11.3638817 50.6741664,13.5229499 L60.110736,25.7049117 C61.7679495,27.8442602 62.3764018,30.6245323 61.7708477,33.2672151 L58.307738,48.3804815 C57.6996801,51.0340909 55.9309079,53.2712112 53.4912098,54.4531877 L39.736213,61.1171608 C37.2783069,62.3079587 34.4154997,62.2934116 31.9696314,61.077824 L18.2805406,54.2743962 C15.8530752,53.0679548 14.106707,50.8135137 13.5247514,48.1543157 L10.2097312,33.0066069 C9.63007446,30.3579135 10.2657744,27.5836719 11.9441448,25.4608906 L21.4994731,13.3754344 C23.1933538,11.2330359 25.7665919,9.98633195 28.4889407,9.99982941 Z" id="Path" fill="#FFFFFF"></path>
    </g>
</svg>