<?xml version="1.0" encoding="UTF-8"?>
<svg width="72px" height="72px" viewBox="0 0 72 72" version="1.1" xmlns="http://www.w3.org/2000/svg" xmlns:xlink="http://www.w3.org/1999/xlink">
    <title>Badge / level50_outer</title>
    <g id="Badge-/-level50_outer" stroke="none" stroke-width="1" fill="none" fill-rule="evenodd">
        <path d="M39.7994267,7.9403781 L48.107,14.738 L57.4510382,13.0704681 C60.6390055,12.5011883 63.688086,14.5628687 64.3687314,17.7015818 L64.4123475,17.9222898 C64.539377,18.6336549 64.5368589,19.3621168 64.4049145,20.0725867 L59.1899674,48.1530708 C58.4777568,51.9880512 55.9460473,55.2376049 52.4017046,56.8660866 L39.3400014,62.8674098 C37.2198716,63.8415234 34.7801284,63.8415234 32.6599986,62.8674098 L19.5982954,56.8660866 C16.0539527,55.2376049 13.5222432,51.9880512 12.8100326,48.1530708 L7.59508554,20.0725867 C6.99002823,16.8145859 9.14066392,13.6829585 12.3986648,13.0779012 C13.1091347,12.9459567 13.8375966,12.9434386 14.5489618,13.0704681 L23.892,14.738 L32.2005733,7.9403781 C34.4107686,6.13203649 37.5892314,6.13203649 39.7994267,7.9403781 Z" id="Path" fill="#FFFFFF"></path>
    </g>
</svg>