<?xml version="1.0" encoding="UTF-8"?>
<svg width="72px" height="72px" viewBox="0 0 72 72" version="1.1" xmlns="http://www.w3.org/2000/svg" xmlns:xlink="http://www.w3.org/1999/xlink">
    <title>Badge / level70_outer</title>
    <g id="Badge-/-level70_outer" stroke="none" stroke-width="1" fill="none" fill-rule="evenodd">
        <path d="M53.1003284,13.6506726 L54.9728045,18.8132742 C55.0785512,19.1048284 55.2728431,19.3465554 55.5203623,19.5020904 L60.1210709,22.3930628 C64.4301129,25.1007591 65.7805182,30.794457 63.1758035,35.1776826 L60.3775866,39.8865345 C60.217228,40.1563866 60.1491686,40.4783318 60.1869982,40.7973962 L60.8347735,46.2609009 C61.4377683,51.3467159 57.8828327,56.0017047 52.8253705,56.6706892 L47.4635749,57.3799299 C47.1906985,57.4160251 46.9332988,57.5462369 46.7317579,57.7546303 L42.9388119,61.6765367 C39.3615507,65.3754249 33.4937411,65.4498829 29.825724,61.8416713 L25.9378912,58.017228 C25.7320697,57.8147624 25.4724313,57.6915357 25.1993558,57.6624398 L19.8218541,57.0894725 C14.7478294,56.5488403 11.078144,51.9832233 11.5564649,46.8827434 L12.0702123,41.4045 C12.1002037,41.084692 12.0243967,40.7650677 11.8578906,40.5000253 L8.94520186,35.8636403 C6.23343256,31.5470767 7.44368777,25.8221377 11.6832658,23.0071388 L16.211731,20.0003242 C16.4562897,19.8379419 16.6453088,19.5904319 16.7441767,19.2954032 L18.4896149,14.086893 C20.1236614,9.21078304 25.3568542,6.56344611 30.2154477,8.19978242 L35.3486042,9.92858941 C35.6073633,10.0157375 35.8849477,10.0122151 36.1418543,9.91839588 L41.2310688,8.05987489 C46.0480475,6.30077121 51.346618,8.81552015 53.1003284,13.6506726 Z" id="Path" fill="#FFFFFF"></path>
    </g>
</svg>