<?xml version="1.0" encoding="UTF-8"?>
<svg width="72px" height="72px" viewBox="0 0 72 72" version="1.1" xmlns="http://www.w3.org/2000/svg" xmlns:xlink="http://www.w3.org/1999/xlink">
    <title>Badge / level5_outer</title>
    <g id="Badge-/-level5_outer" stroke="none" stroke-width="1" fill="none" fill-rule="evenodd">
        <path d="M46.3911108,10.4999249 C50.1271554,10.4878546 53.4874078,12.772975 54.8403854,16.2520154 L58.7479369,26.299875 C58.8050998,26.4468635 58.8583886,26.5953257 58.907748,26.7451084 L62.5476894,37.7906448 C63.7418498,41.4143683 62.5205017,45.3943604 59.5010675,47.7298044 L50.1936104,54.9289433 L41.8492599,61.5441568 C38.6567698,64.0750912 34.1609892,64.1575608 30.8775485,61.7457225 L22.2992466,55.4446293 L12.7514246,48.5780067 C9.65235483,46.3492112 8.29246598,42.4144958 9.35911798,38.7509188 L12.6481681,27.459832 L12.708879,27.2692899 L16.2767025,16.969195 C17.4989159,13.4423901 20.7714195,11.0340879 24.5053507,10.907304 L35.3844273,10.5385044 L35.5066425,10.5362301 L46.3911108,10.4999249 Z" id="Path" fill="#FFFFFF"></path>
    </g>
</svg>