<?xml version="1.0" encoding="UTF-8"?>
<svg width="72px" height="72px" viewBox="0 0 72 72" version="1.1" xmlns="http://www.w3.org/2000/svg" xmlns:xlink="http://www.w3.org/1999/xlink">
    <title>Badge / level60_outer</title>
    <g id="Badge-/-level60_outer" stroke="none" stroke-width="1" fill="none" fill-rule="evenodd">
        <path d="M42.9665187,9.65759303 L48.3442821,14.984994 C48.4885608,15.1279215 48.6697115,15.2317632 48.8696837,15.2852034 L56.2053628,17.2455751 C61.0889021,18.550642 63.9969507,23.5516158 62.6870987,28.4271596 L60.729183,35.7149323 C60.6789587,35.9018776 60.6789587,36.0981224 60.729183,36.2850677 L62.6870987,43.5728404 C63.9969507,48.4483842 61.0889021,53.449358 56.2053628,54.7544249 L48.8696837,56.7147966 C48.6697115,56.7682368 48.4885608,56.8720785 48.3442821,57.015006 L42.9665187,62.342407 C39.3895633,65.8858643 33.6104367,65.8858643 30.0334813,62.342407 L24.6557179,57.015006 C24.5114392,56.8720785 24.3302885,56.7682368 24.1303163,56.7147966 L16.7946372,54.7544249 C11.9110979,53.449358 9.00304929,48.4483842 10.3129013,43.5728404 L12.270817,36.2850677 C12.3210413,36.0981224 12.3210413,35.9018776 12.270817,35.7149323 L10.3129013,28.4271596 C9.00304929,23.5516158 11.9110979,18.550642 16.7946372,17.2455751 L24.1303163,15.2852034 C24.3302885,15.2317632 24.5114392,15.1279215 24.6557179,14.984994 L30.0334813,9.65759303 C33.6104367,6.11413566 39.3895633,6.11413566 42.9665187,9.65759303 Z" id="Path" fill="#FFFFFF"></path>
    </g>
</svg>