<?xml version="1.0" encoding="UTF-8"?>
<svg width="72px" height="72px" viewBox="0 0 72 72" version="1.1" xmlns="http://www.w3.org/2000/svg" xmlns:xlink="http://www.w3.org/1999/xlink">
    <title>Badge / level10_outer</title>
    <g id="Badge-/-level10_outer" stroke="none" stroke-width="1" fill="none" fill-rule="evenodd">
        <path d="M49,11 C55.627417,11 61,16.372583 61,23 L61,46.8429984 C61,50.3143731 59.0035694,53.4762825 55.8694022,54.9687431 L39.0095351,62.9972512 C37.1056012,63.9038864 34.8943988,63.9038864 32.9904649,62.9972512 L16.1305978,54.9687431 C12.9964306,53.4762825 11,50.3143731 11,46.8429984 L11,23 C11,16.372583 16.372583,11 23,11 L49,11 Z" id="Path" fill="#FFFFFF"></path>
        <path d="M23,15 L49,15 C53.418278,15 57,18.581722 57,23 L57,46.8429984 C57,48.7715399 55.8908719,50.5281562 54.1496679,51.357301 L37.2898007,59.3858092 C36.4738291,59.7743671 35.5261709,59.7743671 34.7101993,59.3858092 L17.8503321,51.357301 C16.1091281,50.5281562 15,48.7715399 15,46.8429984 L15,23 C15,18.581722 18.581722,15 23,15 Z" id="Path" fill="#FFFFFF"></path>
    </g>
</svg>