<?xml version="1.0" encoding="UTF-8"?>
<svg width="72px" height="72px" viewBox="0 0 72 72" version="1.1" xmlns="http://www.w3.org/2000/svg" xmlns:xlink="http://www.w3.org/1999/xlink">
    <title>Badge / level8_outer</title>
    <g id="Badge-/-level8_outer" stroke="none" stroke-width="1" fill="none" fill-rule="evenodd">
        <path d="M44.0147186,11 C46.6668835,11 49.2104227,12.0535684 51.0857864,13.9289322 L58.0710678,20.9142136 C59.9464316,22.7895773 61,25.3331165 61,27.9852814 L61,44.0147186 C61,46.6668835 59.9464316,49.2104227 58.0710678,51.0857864 L51.0857864,58.0710678 C49.2104227,59.9464316 46.6668835,61 44.0147186,61 L27.9852814,61 C25.3331165,61 22.7895773,59.9464316 20.9142136,58.0710678 L13.9289322,51.0857864 C12.0535684,49.2104227 11,46.6668835 11,44.0147186 L11,27.9852814 C11,25.3331165 12.0535684,22.7895773 13.9289322,20.9142136 L20.9142136,13.9289322 C22.7895773,12.0535684 25.3331165,11 27.9852814,11 L44.0147186,11 Z" id="Path" fill="#FFFFFF"></path>
    </g>
</svg>