<svg width="56" height="56" viewBox="0 0 56 56" fill="none" xmlns="http://www.w3.org/2000/svg">
<path fill-rule="evenodd" clip-rule="evenodd" d="M1.26539 29.9771C1.74019 31.4384 3.00745 32.7056 5.54196 35.2401L6.99942 36.6976V38.7594C6.99942 42.3437 6.99942 44.1359 7.69698 45.5049C8.31057 46.7091 9.28965 47.6882 10.4939 48.3018C11.8629 48.9994 13.6551 48.9994 17.2394 48.9994H19.3012L20.7589 50.4571C23.2934 52.9916 24.5607 54.2588 26.022 54.7336C27.3074 55.1513 28.692 55.1513 29.9774 54.7336C31.4387 54.2588 32.7059 52.9916 35.2404 50.4571L36.6981 48.9994H38.7594C42.3438 48.9994 44.1359 48.9994 45.505 48.3018C46.7092 47.6882 47.6883 46.7091 48.3019 45.5049C48.9994 44.1359 48.9994 42.3437 48.9994 38.7594V36.6981L50.4574 35.2401C52.9919 32.7056 54.2591 31.4384 54.7339 29.9771C55.1516 28.6917 55.1516 27.307 54.7339 26.0217C54.2591 24.5603 52.9919 23.2931 50.4574 20.7586L48.9994 19.3006V17.2394C48.9994 13.655 48.9994 11.8629 48.3019 10.4938C47.6883 9.28959 46.7092 8.31051 45.505 7.69692C44.1359 6.99936 42.3438 6.99936 38.7594 6.99936H36.6981L35.2404 5.54165C32.7059 3.00714 31.4387 1.73989 29.9774 1.26508C28.692 0.847434 27.3074 0.847434 26.022 1.26508C24.5607 1.73989 23.2934 3.00714 20.7589 5.54165L19.3012 6.99936H17.2394C13.6551 6.99936 11.8629 6.99936 10.4939 7.69692C9.28965 8.31051 8.31057 9.28959 7.69698 10.4938C6.99942 11.8629 6.99942 13.655 6.99942 17.2394V19.3011L5.54196 20.7586C3.00745 23.2931 1.74019 24.5603 1.26539 26.0217C0.847736 27.307 0.847736 28.6917 1.26539 29.9771Z" fill="black"/>
</svg>
