<svg width="30" height="30" viewBox="0 0 30 30" fill="none" xmlns="http://www.w3.org/2000/svg">
<g clip-path="url(#clip0_1001_6246)">
<rect width="30" height="30" rx="7" fill="#FF2D55"/>
<path fill-rule="evenodd" clip-rule="evenodd" d="M5.43597 10.184C5 11.0397 5 12.1598 5 14.4V15.6C5 17.8402 5 18.9603 5.43597 19.816C5.81947 20.5686 6.43139 21.1805 7.18404 21.564C8.03969 22 9.15979 22 11.4 22H12.6C14.8402 22 15.9603 22 16.816 21.564C17.5686 21.1805 18.1805 20.5686 18.564 19.816C19 18.9603 19 17.8402 19 15.6V14.4C19 12.1598 19 11.0397 18.564 10.184C18.1805 9.43139 17.5686 8.81947 16.816 8.43597C15.9603 8 14.8402 8 12.6 8H11.4C9.15979 8 8.03969 8 7.18404 8.43597C6.43139 8.81947 5.81947 9.43139 5.43597 10.184ZM25.4951 11.0427C25.4432 10.4576 24.9855 10 24.4286 10C24.1967 10 23.9712 10.081 23.7857 10.2308L21.0714 13L20.977 13.0832C20.675 13.3737 20.5 13.7905 20.5 14.2307V15.7692L20.5052 15.9005C20.5397 16.335 20.7444 16.7358 21.0714 17L23.7857 19.7692L23.8712 19.8316C24.337 20.138 24.9516 20.0182 25.2857 19.5384C25.4248 19.3387 25.5 19.0958 25.5 18.8461V11.1538L25.4951 11.0427Z" fill="white"/>
</g>
<defs>
<clipPath id="clip0_1001_6246">
<rect width="30" height="30" fill="white"/>
</clipPath>
</defs>
</svg>
