<svg width="30" height="30" viewBox="0 0 30 30" fill="none" xmlns="http://www.w3.org/2000/svg">
<path fill-rule="evenodd" clip-rule="evenodd" d="M15 8C9.31976 8 5.83718 12.0484 4.55746 13.8704C4.18393 14.4022 4.17081 15.0883 4.51968 15.6366C5.75494 17.578 9.20464 22 15 22C20.7954 22 24.2451 17.578 25.4803 15.6366C25.8292 15.0883 25.8161 14.4022 25.4426 13.8704C24.1628 12.0484 20.6803 8 15 8ZM20 15C20 17.7614 17.7614 20 15 20C12.2386 20 10 17.7614 10 15C10 12.2386 12.2386 10 15 10C17.7614 10 20 12.2386 20 15ZM15 18C16.6569 18 18 16.6569 18 15C18 13.3431 16.6569 12 15 12C14.912 12 14.8249 12.0038 14.7389 12.0112C14.9051 12.3028 15 12.6403 15 13C15 14.1046 14.1046 15 13 15C12.6403 15 12.3028 14.9051 12.0112 14.7389C12.0038 14.8249 12 14.912 12 15C12 16.6569 13.3432 18 15 18Z" fill="white"/>
</svg>
