<svg width="12" height="13" viewBox="0 0 12 13" fill="none" xmlns="http://www.w3.org/2000/svg">
<path fill-rule="evenodd" clip-rule="evenodd" d="M5.5953 11.0986C4.12087 10.9918 2.82405 10.1403 2.17149 8.35384C1.77098 7.2574 2.07201 5.76373 3.0746 3.87282C3.16459 3.70303 3.68939 3.89974 3.71944 3.94691L4.50543 5.18903C4.55963 5.27404 4.79721 5.19973 4.8111 5.17179C5.03783 4.71551 5.22636 4.1273 5.37671 3.40715C5.52201 2.71113 5.59278 2.06825 5.5953 1.31662C5.59594 1.12274 5.95245 0.820539 6 0.84613C7.14662 1.46317 8.0944 2.22803 8.66171 2.98285C9.63301 4.2752 9.88777 5.27431 9.96174 6.48816C10.1296 7.78857 9.7451 8.92338 8.80824 9.8926C7.87138 10.8618 6.8004 11.2638 5.5953 11.0986Z" fill="#007AFE"/>
</svg>
