<?xml version="1.0" encoding="UTF-8"?>
<svg width="1024px" height="1024px" viewBox="0 0 1024 1024" version="1.1" xmlns="http://www.w3.org/2000/svg" xmlns:xlink="http://www.w3.org/1999/xlink">
    <title>Plane</title>
    <g id="Plane" stroke="none" fill="none" fill-rule="nonzero">
        <path d="M287.315632,507.666819 C406.984718,455.528898 486.782853,421.15639 526.710034,404.549294 C640.710251,357.13266 664.39852,348.895883 679.838202,348.621 C683.234017,348.56408 690.826804,349.405665 695.745092,353.396516 C699.897998,356.766313 701.040629,361.31843 701.587414,364.513367 C702.1342,367.708304 702.815079,374.986453 702.273832,380.673387 C696.09612,445.583141 669.36526,603.101997 655.766116,675.802034 C650.011808,706.564145 638.681397,716.878524 627.712247,717.887922 C603.873746,720.081578 585.77187,702.133777 562.683116,686.998808 C526.553773,663.315568 506.142993,648.572678 471.073211,625.462211 C430.544009,598.754068 456.817404,584.074808 479.914878,560.08479 C485.959597,553.806488 590.992581,458.270869 593.025497,449.604291 C593.279747,448.520391 593.515704,444.480123 591.115452,442.346714 C588.715199,440.213304 585.172634,440.942847 582.61622,441.52306 C578.99258,442.345492 521.275488,480.49435 409.464943,555.969631 C393.082138,567.219329 378.243103,572.700559 364.947836,572.413323 C350.290871,572.096667 322.096751,564.126052 301.137321,557.312967 C275.429726,548.956441 254.997841,544.538286 256.777,530.34632 C257.703696,522.954266 267.883239,515.394432 287.315632,507.666819 Z" id="Path-3" fill="#FFFFFF"></path>
    </g>
</svg>