<svg width="31" height="30" viewBox="0 0 31 30" fill="none" xmlns="http://www.w3.org/2000/svg">
<path fill-rule="evenodd" clip-rule="evenodd" d="M13.5 2.99879C13.5 2.47292 14.092 2.16472 14.5228 2.46629L17.7393 4.71786C18.109 4.97663 18.109 5.5241 17.7393 5.78286L14.5228 8.03444C14.092 8.336 13.5 8.0278 13.5 7.50193V5.88011C9.30553 6.7957 6.16504 10.5313 6.16504 15.0004C6.16504 20.1559 10.3445 24.3354 15.5 24.3354C20.6556 24.3354 24.835 20.1559 24.835 15.0004C24.835 11.7832 23.2082 8.94581 20.7292 7.26622C20.4251 7.06022 20.3457 6.64674 20.5517 6.34268C20.7577 6.03863 21.1711 5.95914 21.4752 6.16515C24.3038 8.08162 26.165 11.3235 26.165 15.0004C26.165 20.8905 21.3902 25.6654 15.5 25.6654C9.60992 25.6654 4.83504 20.8905 4.83504 15.0004C4.83504 9.79384 8.56591 5.45871 13.5 4.52259V2.99879Z" fill="#4AA1FF"/>
<path d="M10.2328 19C9.80311 19 9.57752 18.7637 9.57752 18.4146C9.57752 18.146 9.66883 17.9849 9.96424 17.7056L12.3329 15.3584C13.3212 14.3809 13.5682 13.9888 13.5682 13.3979C13.5682 12.7051 13.0365 12.2056 12.2899 12.2056C11.5917 12.2056 11.1029 12.5601 10.829 13.2583C10.6893 13.5376 10.5282 13.6826 10.2113 13.6826C9.83533 13.6826 9.60975 13.4517 9.60975 13.1079C9.60975 13.0059 9.62586 12.9092 9.65271 12.8179C9.86219 11.98 10.7914 11.0938 12.3007 11.0938C13.8529 11.0938 14.9218 12.0122 14.9218 13.312C14.9218 14.2197 14.4867 14.832 13.203 16.0889L11.4252 17.8398V17.8667H14.5189C14.8842 17.8667 15.1097 18.0923 15.1097 18.436C15.1097 18.7744 14.8842 19 14.5189 19H10.2328ZM18.7047 19.1558C17.5123 19.1558 16.4811 18.5864 16.0997 17.7432C16.0245 17.5767 15.9762 17.4155 15.9762 17.2168C15.9762 16.8569 16.2071 16.6313 16.5724 16.6313C16.8624 16.6313 17.0397 16.7441 17.1847 17.0288C17.4479 17.6572 17.9635 18.0278 18.7101 18.0278C19.6285 18.0278 20.2784 17.3779 20.2784 16.4595C20.2784 15.5679 19.6285 14.9341 18.7154 14.9341C18.2267 14.9341 17.8024 15.1328 17.507 15.4229C17.1847 15.7451 17.0504 15.8149 16.7335 15.8149C16.2877 15.8149 16.0675 15.498 16.0782 15.1221C16.0782 15.0898 16.0782 15.0684 16.0836 15.0361L16.3307 12.1089C16.379 11.4966 16.6905 11.2495 17.2975 11.2495H20.6383C20.9928 11.2495 21.2238 11.4751 21.2238 11.8135C21.2238 12.1572 20.9928 12.3828 20.6383 12.3828H17.507L17.3029 14.6763H17.3297C17.6573 14.1929 18.2965 13.8921 19.0753 13.8921C20.5577 13.8921 21.6158 14.9395 21.6158 16.4219C21.6158 18.0439 20.4235 19.1558 18.7047 19.1558Z" fill="#4AA1FF"/>
</svg>
