<svg width="64" height="64" viewBox="0 0 64 64" fill="none" xmlns="http://www.w3.org/2000/svg">
<path d="M23.1972 31.4693C22.2599 30.5321 20.7403 30.5321 19.803 31.4693C18.8658 32.4066 18.8658 33.9262 19.803 34.8635L23.1972 31.4693ZM28.5001 40.1664L26.803 41.8635C27.7403 42.8007 29.2599 42.8007 30.1972 41.8635L28.5001 40.1664ZM44.1972 27.8635C45.1344 26.9262 45.1344 25.4066 44.1972 24.4693C43.2599 23.5321 41.7403 23.5321 40.803 24.4693L44.1972 27.8635ZM19.803 34.8635L26.803 41.8635L30.1972 38.4694L23.1972 31.4693L19.803 34.8635ZM30.1972 41.8635L44.1972 27.8635L40.803 24.4693L26.803 38.4694L30.1972 41.8635Z" fill="black"/>
</svg>
