<svg width="24" height="24" viewBox="0 0 24 24" fill="none" xmlns="http://www.w3.org/2000/svg">
<path fill-rule="evenodd" clip-rule="evenodd" d="M12 4.66502C7.88795 4.66502 4.66502 7.68163 4.66502 11.2727C4.66502 13.329 5.61495 15.016 7.28375 16.2378C7.50459 16.3995 7.61824 16.6447 7.67716 16.8096C7.74628 17.003 7.78941 17.2274 7.80119 17.4635C7.82475 17.9355 7.72531 18.5159 7.37618 19.0511C7.32109 19.1355 7.26431 19.2162 7.20737 19.2928C7.45008 19.2413 7.68743 19.1624 7.88779 19.05C8.43439 18.7435 8.78169 18.4401 9.03437 18.2083C9.05375 18.1905 9.07401 18.1718 9.0949 18.1524C9.19597 18.0589 9.3118 17.9516 9.41317 17.8755C9.51328 17.8003 9.80413 17.5892 10.1854 17.6767C10.7649 17.8096 11.3728 17.8805 12 17.8805C16.1121 17.8805 19.335 14.8639 19.335 11.2727C19.335 7.68163 16.1121 4.66502 12 4.66502ZM6.17873 19.351C6.17875 19.3509 6.18007 19.3512 6.18254 19.3518C6.17992 19.3513 6.1787 19.351 6.17873 19.351ZM6.49475 20.1245C6.49316 20.1271 6.49223 20.1284 6.49219 20.1284C6.49214 20.1284 6.49293 20.1271 6.49475 20.1245ZM3.33502 11.2727C3.33502 6.83064 7.27554 3.33502 12 3.33502C16.7245 3.33502 20.665 6.83064 20.665 11.2727C20.665 15.7149 16.7245 19.2105 12 19.2105C11.3532 19.2105 10.7221 19.1455 10.1145 19.022C10.0893 19.0448 10.0598 19.0721 10.0238 19.1052C9.99742 19.1295 9.9676 19.157 9.93357 19.1883C9.64507 19.453 9.2118 19.8324 8.53835 20.21C8.00052 20.5117 7.38987 20.636 6.91077 20.6797C6.66653 20.702 6.44116 20.7047 6.25548 20.6946C6.16291 20.6897 6.07427 20.6812 5.9943 20.6688C5.92695 20.6584 5.82187 20.6389 5.72037 20.5963C5.60837 20.5493 5.41843 20.4446 5.30536 20.2201C5.18416 19.9794 5.22417 19.7499 5.27201 19.6141C5.31662 19.4875 5.38558 19.3872 5.43085 19.3263C5.48061 19.2594 5.53686 19.1946 5.58714 19.1386C5.62942 19.0915 5.6727 19.0445 5.71667 18.9967C5.89442 18.8038 6.08334 18.5986 6.26224 18.3244C6.43214 18.0639 6.48498 17.7728 6.47285 17.5298C6.46678 17.4083 6.44507 17.3141 6.42472 17.2571C6.42464 17.2569 6.42456 17.2567 6.42448 17.2565C4.49565 15.8148 3.33502 13.7665 3.33502 11.2727ZM6.40689 17.2161C6.407 17.2159 6.40865 17.2184 6.41149 17.2244C6.4082 17.2193 6.40678 17.2163 6.40689 17.2161ZM10.2318 18.9257C10.2316 18.9262 10.2262 18.9301 10.2162 18.9357C10.2269 18.9279 10.2319 18.9251 10.2318 18.9257Z" fill="white"/>
</svg>
