<svg width="44" height="44" viewBox="0 0 44 44" fill="none" xmlns="http://www.w3.org/2000/svg">
<path fill-rule="evenodd" clip-rule="evenodd" d="M22 4.515C12.3433 4.515 4.515 12.3433 4.515 22C4.515 31.6567 12.3433 39.485 22 39.485C31.6567 39.485 39.485 31.6567 39.485 22C39.485 12.3433 31.6567 4.515 22 4.515ZM1.485 22C1.485 10.6699 10.6699 1.485 22 1.485C33.3301 1.485 42.515 10.6699 42.515 22C42.515 33.3301 33.3301 42.515 22 42.515C10.6699 42.515 1.485 33.3301 1.485 22ZM21.9986 13.152C22.8353 13.152 23.5136 13.8303 23.5136 14.667V20.4854H29.3319C30.1686 20.4854 30.8469 21.1636 30.8469 22.0004C30.8469 22.8371 30.1686 23.5154 29.3319 23.5154H23.5136V29.3337C23.5136 30.1704 22.8353 30.8487 21.9986 30.8487C21.1619 30.8487 20.4836 30.1704 20.4836 29.3337V23.5154H14.6652C13.8285 23.5154 13.1502 22.8371 13.1502 22.0004C13.1502 21.1636 13.8285 20.4854 14.6652 20.4854H20.4836V14.667C20.4836 13.8303 21.1619 13.152 21.9986 13.152Z" fill="black"/>
</svg>
