<svg width="24" height="24" viewBox="0 0 24 24" fill="none" xmlns="http://www.w3.org/2000/svg">
<path fill-rule="evenodd" clip-rule="evenodd" d="M11.9992 3.6302C7.3766 3.6302 3.62922 7.37757 3.62922 12.0002C3.62922 16.6228 7.3766 20.3702 11.9992 20.3702C16.6218 20.3702 20.3692 16.6228 20.3692 12.0002C20.3692 7.37757 16.6218 3.6302 11.9992 3.6302ZM1.96922 12.0002C1.96922 6.46078 6.4598 1.9702 11.9992 1.9702C17.5386 1.9702 22.0292 6.46078 22.0292 12.0002C22.0292 17.5396 17.5386 22.0302 11.9992 22.0302C6.4598 22.0302 1.96922 17.5396 1.96922 12.0002ZM11.9992 7.1702C12.4576 7.1702 12.8292 7.5418 12.8292 8.0002V11.1702H15.9992C16.4576 11.1702 16.8292 11.5418 16.8292 12.0002C16.8292 12.4586 16.4576 12.8302 15.9992 12.8302H12.8292V16.0002C12.8292 16.4586 12.4576 16.8302 11.9992 16.8302C11.5408 16.8302 11.1692 16.4586 11.1692 16.0002V12.8302H7.99922C7.54082 12.8302 7.16922 12.4586 7.16922 12.0002C7.16922 11.5418 7.54082 11.1702 7.99922 11.1702H11.1692V8.0002C11.1692 7.5418 11.5408 7.1702 11.9992 7.1702Z" fill="black"/>
</svg>
