<svg width="24" height="24" viewBox="0 0 24 24" fill="none" xmlns="http://www.w3.org/2000/svg">
<path fill-rule="evenodd" clip-rule="evenodd" d="M4.66496 12C4.66496 7.94895 7.94895 4.66496 12 4.66496C16.051 4.66496 19.335 7.94895 19.335 12C19.335 16.051 16.051 19.335 12 19.335C7.94895 19.335 4.66496 16.051 4.66496 12ZM12 3.33496C7.21441 3.33496 3.33496 7.21441 3.33496 12C3.33496 16.7855 7.21441 20.665 12 20.665C16.7855 20.665 20.665 16.7855 20.665 12C20.665 7.21441 16.7855 3.33496 12 3.33496ZM12.665 6.99996C12.665 6.63269 12.3672 6.33496 12 6.33496C11.6327 6.33496 11.335 6.63269 11.335 6.99996V12C11.335 12.1763 11.405 12.3455 11.5297 12.4702L14.5297 15.4702C14.7894 15.7299 15.2105 15.7299 15.4702 15.4702C15.7299 15.2105 15.7299 14.7894 15.4702 14.5297L12.665 11.7245V6.99996Z" fill="white"/>
</svg>
