<svg width="9" height="18" viewBox="0 0 9 18" fill="none" xmlns="http://www.w3.org/2000/svg">
<path fill-rule="evenodd" clip-rule="evenodd" d="M8.43787 0.499507C8.71427 0.741355 8.74227 1.16148 8.50042 1.43788L1.88359 8.99997L8.50042 16.5621C8.74227 16.8385 8.71427 17.2586 8.43787 17.5004C8.16147 17.7423 7.74135 17.7143 7.4995 17.4379L0.499497 9.43788C0.280115 9.18715 0.280115 8.81279 0.499497 8.56206L7.4995 0.562064C7.74135 0.285666 8.16147 0.257658 8.43787 0.499507Z" fill="white" style="mix-blend-mode:overlay"/>
<path fill-rule="evenodd" clip-rule="evenodd" d="M8.43787 0.499507C8.71427 0.741355 8.74227 1.16148 8.50042 1.43788L1.88359 8.99997L8.50042 16.5621C8.74227 16.8385 8.71427 17.2586 8.43787 17.5004C8.16147 17.7423 7.74135 17.7143 7.4995 17.4379L0.499497 9.43788C0.280115 9.18715 0.280115 8.81279 0.499497 8.56206L7.4995 0.562064C7.74135 0.285666 8.16147 0.257658 8.43787 0.499507Z" fill="white" style="mix-blend-mode:overlay"/>
</svg>
