<svg width="31" height="30" viewBox="0 0 31 30" fill="none" xmlns="http://www.w3.org/2000/svg">
<path fill-rule="evenodd" clip-rule="evenodd" d="M17.5 2.99879C17.5 2.47292 16.908 2.16472 16.4772 2.46629L13.2607 4.71786C12.891 4.97663 12.891 5.5241 13.2607 5.78286L16.4772 8.03444C16.908 8.336 17.5 8.0278 17.5 7.50193V5.88011C21.6945 6.7957 24.835 10.5313 24.835 15.0004C24.835 20.1559 20.6555 24.3354 15.5 24.3354C10.3444 24.3354 6.16496 20.1559 6.16496 15.0004C6.16496 11.7832 7.79182 8.94581 10.2708 7.26622C10.5749 7.06022 10.6543 6.64674 10.4483 6.34268C10.2423 6.03863 9.82885 5.95914 9.5248 6.16515C6.69618 8.08162 4.83496 11.3235 4.83496 15.0004C4.83496 20.8905 9.60985 25.6654 15.5 25.6654C21.3901 25.6654 26.165 20.8905 26.165 15.0004C26.165 9.79384 22.4341 5.45871 17.5 4.52259V2.99879Z" fill="#4AA1FF"/>
<path d="M15.5806 19.1558C14.3882 19.1558 13.3569 18.5864 12.9756 17.7432C12.9004 17.5767 12.8521 17.4155 12.8521 17.2168C12.8521 16.8569 13.083 16.6313 13.4482 16.6313C13.7383 16.6313 13.9155 16.7441 14.0605 17.0288C14.3237 17.6572 14.8394 18.0278 15.5859 18.0278C16.5044 18.0278 17.1543 17.3779 17.1543 16.4595C17.1543 15.5679 16.5044 14.9341 15.5913 14.9341C15.1025 14.9341 14.6782 15.1328 14.3828 15.4229C14.0605 15.7451 13.9263 15.8149 13.6094 15.8149C13.1636 15.8149 12.9434 15.498 12.9541 15.1221C12.9541 15.0898 12.9541 15.0684 12.9595 15.0361L13.2065 12.1089C13.2549 11.4966 13.5664 11.2495 14.1733 11.2495H17.5142C17.8687 11.2495 18.0996 11.4751 18.0996 11.8135C18.0996 12.1572 17.8687 12.3828 17.5142 12.3828H14.3828L14.1787 14.6763H14.2056C14.5332 14.1929 15.1724 13.8921 15.9512 13.8921C17.4336 13.8921 18.4917 14.9395 18.4917 16.4219C18.4917 18.0439 17.2993 19.1558 15.5806 19.1558Z" fill="#4AA1FF"/>
</svg>
