<svg width="22" height="9" viewBox="0 0 22 9" fill="none" xmlns="http://www.w3.org/2000/svg">
<path d="M10.7451 0.305557C6.95123 0.305557 3.38512 1.10289 1.60645 2.88157C0.80035 3.68766 0.3973 4.66024 0.449872 5.83434C0.48492 6.54406 0.703968 7.17491 1.11578 7.58673C1.42245 7.90216 1.85178 8.07739 2.35121 7.99854L5.60189 7.44654C6.09256 7.36768 6.43427 7.21872 6.65332 6.99091C6.94247 6.71053 7.03009 6.28996 7.03009 5.73796V4.853C7.03009 4.71281 7.09142 4.60767 7.17904 4.52005C7.26666 4.41491 7.39809 4.3711 7.49447 4.34481C8.09028 4.20462 9.29943 4.07319 10.7451 4.07319C12.1909 4.07319 13.3913 4.17833 13.9958 4.35357C14.0834 4.37986 14.2061 4.43243 14.3025 4.52005C14.3813 4.60767 14.4339 4.70405 14.4427 4.84424L14.4514 5.73796C14.4602 6.28996 14.5478 6.71053 14.8282 6.99091C15.056 7.21872 15.3977 7.36768 15.8884 7.44654L19.0953 7.98978C19.6122 8.07739 20.0503 7.89339 20.392 7.56044C20.8039 7.15739 21.0317 6.53529 21.0492 5.82558C21.0755 4.64272 20.6199 3.67014 19.8313 2.88157C18.0526 1.10289 14.5391 0.305557 10.7451 0.305557Z" fill="white"/>
</svg>
