<svg width="24" height="24" viewBox="0 0 24 24" fill="none" xmlns="http://www.w3.org/2000/svg">
<path fill-rule="evenodd" clip-rule="evenodd" d="M11.0626 21.9306H12.9374C13.652 21.9306 14.1996 21.494 14.3666 20.8065L14.7657 19.0693L15.0627 18.9672L16.5755 19.8961C17.1787 20.277 17.8748 20.1841 18.3852 19.6732L19.6846 18.3819C20.195 17.871 20.2879 17.165 19.9073 16.5704L18.9607 15.0656L19.0721 14.7868L20.8076 14.3781C21.4851 14.2109 21.9306 13.6535 21.9306 12.9475V11.1082C21.9306 10.4022 21.4944 9.84484 20.8076 9.67761L19.0906 9.2596L18.9699 8.96231L19.9166 7.45739C20.2971 6.86287 20.2043 6.16613 19.6939 5.64595L18.3945 4.34539C17.8934 3.84375 17.1973 3.75086 16.594 4.12244L15.0812 5.05138L14.7657 4.93066L14.3666 3.19348C14.1996 2.50605 13.652 2.06944 12.9374 2.06944H11.0626C10.348 2.06944 9.80046 2.50605 9.63335 3.19348L9.22503 4.93066L8.90949 5.05138L7.40598 4.12244C6.80272 3.75086 6.09735 3.84375 5.5962 4.34539L4.30614 5.64595C3.79569 6.16613 3.6936 6.86287 4.0834 7.45739L5.02077 8.96231L4.90939 9.2596L3.19243 9.67761C2.50565 9.84484 2.06945 10.4022 2.06945 11.1082V12.9475C2.06945 13.6535 2.51493 14.2109 3.19243 14.3781L4.92794 14.7868L5.03005 15.0656L4.09268 16.5704C3.70289 17.165 3.80498 17.871 4.31542 18.3819L5.60548 19.6732C6.1159 20.1841 6.82127 20.277 7.42453 19.8961L8.92804 18.9672L9.22503 19.0693L9.63335 20.8065C9.80046 21.494 10.348 21.9306 11.0626 21.9306ZM11.2111 20.4814C11.0534 20.4814 10.9698 20.4164 10.942 20.2677L10.3851 17.9639C9.81901 17.8246 9.28997 17.6016 8.89093 17.3508L6.86766 18.5956C6.75627 18.6792 6.63567 18.6606 6.52428 18.5492L5.42915 17.453C5.32704 17.3508 5.31776 17.2393 5.39198 17.1092L6.63567 15.1027C6.42217 14.7126 6.1809 14.1831 6.03241 13.6164L3.73073 13.0683C3.58223 13.0404 3.51727 12.9568 3.51727 12.7989V11.2475C3.51727 11.0803 3.57295 11.006 3.73073 10.9781L6.02313 10.4208C6.17163 9.81694 6.45 9.26888 6.61711 8.92515L5.3827 6.91859C5.29921 6.77926 5.30849 6.66775 5.41059 6.55631L6.515 5.47873C6.62639 5.36722 6.72844 5.34867 6.86766 5.43228L8.87232 6.6492C9.27142 6.42625 9.83757 6.19402 10.3944 6.03607L10.942 3.73228C10.9698 3.58365 11.0534 3.51862 11.2111 3.51862H12.7889C12.9466 3.51862 13.0302 3.58365 13.0487 3.73228L13.6149 6.05469C14.1903 6.2033 14.6915 6.43553 15.1091 6.65848L17.1231 5.43228C17.2716 5.34867 17.3643 5.36722 17.485 5.47873L18.5801 6.55631C18.6915 6.66775 18.6915 6.77926 18.608 6.91859L17.3737 8.92515C17.55 9.26888 17.8191 9.81694 17.9676 10.4208L20.2693 10.9781C20.4178 11.006 20.4827 11.0803 20.4827 11.2475V12.7989C20.4827 12.9568 20.4085 13.0404 20.2693 13.0683L17.9583 13.6164C17.8098 14.1831 17.5778 14.7126 17.3551 15.1027L18.5987 17.1092C18.673 17.2393 18.673 17.3508 18.5616 17.453L17.4757 18.5492C17.3551 18.6606 17.2437 18.6792 17.1231 18.5956L15.0998 17.3508C14.7007 17.6016 14.181 17.8246 13.6149 17.9639L13.0487 20.2677C13.0302 20.4164 12.9466 20.4814 12.7889 20.4814H11.2111ZM12 15.5486C13.9397 15.5486 15.536 13.9508 15.536 12C15.536 10.0678 13.9397 8.46997 12 8.46997C10.0603 8.46997 8.45472 10.0678 8.45472 12C8.45472 13.9415 10.051 15.5486 12 15.5486ZM12 14.1087C10.8491 14.1087 9.90251 13.1612 9.90251 12C9.90251 10.8574 10.8491 9.90984 12 9.90984C13.1323 9.90984 14.0789 10.8574 14.0789 12C14.0789 13.1519 13.1323 14.1087 12 14.1087Z" fill="black"/>
</svg>
