<svg width="30" height="30" viewBox="0 0 30 30" fill="none" xmlns="http://www.w3.org/2000/svg">
<g clip-path="url(#clip0_1001_6334)">
<rect width="30" height="30" rx="7" fill="#32ADE6"/>
<path fill-rule="evenodd" clip-rule="evenodd" d="M15.83 4.99998C15.83 4.54159 15.4584 4.16998 15 4.16998C14.5416 4.16998 14.17 4.54159 14.17 4.99998V7.99998C14.17 8.45838 14.5416 8.82998 15 8.82998C15.4584 8.82998 15.83 8.45838 15.83 7.99998V4.99998ZM15.83 22C15.83 21.5416 15.4584 21.17 15 21.17C14.5416 21.17 14.17 21.5416 14.17 22V25C14.17 25.4584 14.5416 25.83 15 25.83C15.4584 25.83 15.83 25.4584 15.83 25V22Z" fill="white"/>
<path fill-rule="evenodd" clip-rule="evenodd" d="M5.00001 14.17C4.54162 14.17 4.17001 14.5416 4.17001 15C4.17001 15.4584 4.54162 15.83 5.00001 15.83H8.00001C8.45841 15.83 8.83001 15.4584 8.83001 15C8.83001 14.5416 8.45841 14.17 8.00001 14.17H5.00001ZM22 14.17C21.5416 14.17 21.17 14.5416 21.17 15C21.17 15.4584 21.5416 15.83 22 15.83H25C25.4584 15.83 25.83 15.4584 25.83 15C25.83 14.5416 25.4584 14.17 25 14.17H22Z" fill="white"/>
<path fill-rule="evenodd" clip-rule="evenodd" d="M22.658 8.51582C22.9821 8.19169 22.9821 7.66616 22.658 7.34203C22.3338 7.01789 21.8083 7.01789 21.4842 7.34203L19.3629 9.46335C19.0387 9.78748 19.0387 10.313 19.3629 10.6371C19.687 10.9613 20.2125 10.9613 20.5367 10.6371L22.658 8.51582ZM10.6372 20.5366C10.9613 20.2125 10.9613 19.687 10.6372 19.3628C10.313 19.0387 9.7875 19.0387 9.46336 19.3628L7.34204 21.4842C7.01791 21.8083 7.01791 22.3338 7.34204 22.658C7.66618 22.9821 8.1917 22.9821 8.51584 22.658L10.6372 20.5366Z" fill="white"/>
<path fill-rule="evenodd" clip-rule="evenodd" d="M8.51585 7.34206C8.19172 7.01792 7.66619 7.01792 7.34206 7.34206C7.01792 7.66619 7.01792 8.19172 7.34206 8.51585L9.46338 10.6372C9.78751 10.9613 10.313 10.9613 10.6372 10.6372C10.9613 10.313 10.9613 9.78751 10.6372 9.46338L8.51585 7.34206ZM20.5367 19.3629C20.2125 19.0387 19.687 19.0387 19.3629 19.3629C19.0387 19.687 19.0387 20.2125 19.3629 20.5367L21.4842 22.658C21.8083 22.9821 22.3339 22.9821 22.658 22.658C22.9821 22.3339 22.9821 21.8083 22.658 21.4842L20.5367 19.3629Z" fill="white"/>
<path d="M14.9498 14.9498L22.0711 22.0711" stroke="white" stroke-width="2" stroke-linecap="round"/>
</g>
<defs>
<clipPath id="clip0_1001_6334">
<rect width="30" height="30" fill="white"/>
</clipPath>
</defs>
</svg>
