<svg width="19" height="21" viewBox="0 0 19 21" fill="none" xmlns="http://www.w3.org/2000/svg">
<path d="M6.69287 3.40967C6.78076 3.40967 6.854 3.3584 6.87598 3.25586C7.05908 2.18652 7.05908 2.1792 8.14307 1.98145C8.25293 1.95215 8.31152 1.89355 8.31152 1.80566C8.31152 1.70312 8.25293 1.64453 8.15039 1.62256C7.05908 1.40283 7.08105 1.39551 6.87598 0.348145C6.854 0.245605 6.78809 0.187012 6.69287 0.187012C6.59766 0.187012 6.53174 0.25293 6.51709 0.34082C6.29736 1.41016 6.33398 1.41016 5.23535 1.62256C5.13281 1.64453 5.07422 1.71045 5.07422 1.80566C5.07422 1.88623 5.13281 1.95215 5.23535 1.98145C6.33398 2.19385 6.31934 2.18652 6.51709 3.26318C6.53174 3.35107 6.59766 3.40967 6.69287 3.40967ZM11.7686 5.37256C11.9077 5.37256 12.0029 5.28467 12.0103 5.14551C12.2227 3.44629 12.2959 3.40234 14.0244 3.12402C14.1782 3.10205 14.2661 3.02148 14.2661 2.88232C14.2661 2.75781 14.1782 2.66992 14.0537 2.64795C12.3105 2.31104 12.2227 2.32568 12.0103 0.626465C12.0029 0.487305 11.9077 0.399414 11.7686 0.399414C11.6514 0.399414 11.5562 0.487305 11.5415 0.619141C11.3145 2.34766 11.2632 2.39893 9.49805 2.64795C9.37354 2.6626 9.28564 2.75781 9.28564 2.88232C9.28564 3.01416 9.37354 3.10205 9.49805 3.12402C11.2705 3.46826 11.3145 3.46094 11.5415 5.16016C11.5562 5.28467 11.6514 5.37256 11.7686 5.37256ZM6.83203 4.68408C6.71484 4.79395 6.62695 4.91846 6.57568 5.05762C5.96777 4.64014 5.25732 4.71338 4.70801 5.2627C4.51025 5.46045 4.39307 5.70947 4.37109 5.96582C3.74854 5.54102 3.06738 5.59229 2.53271 6.11963C2.02002 6.63965 1.96875 7.34277 2.37158 7.95068C2.12256 7.96533 1.89551 8.0752 1.71973 8.2583C1.12646 8.84424 1.14111 9.65723 1.74902 10.2651L2.23975 10.7559C1.9834 10.7632 1.72705 10.8877 1.5293 11.0854C0.936035 11.6787 0.958008 12.5283 1.58789 13.1582L6.11426 17.6846C8.12109 19.6841 10.4941 20.0869 12.5449 18.981C13.7754 18.9297 14.9766 18.3804 16.0239 17.333C17.9282 15.4214 18.2432 13.063 16.9468 10.3311L15.2769 6.81543C14.9619 6.13428 14.4199 5.73877 13.7607 5.74609C13.4019 5.74609 12.7866 5.93652 12.5303 6.50781C12.0176 6.18555 11.3804 6.22949 10.897 6.63232L8.95605 4.69873C8.29688 4.03955 7.46924 4.0542 6.83203 4.68408ZM10.8311 9.26904L7.38135 5.82666C7.40332 5.74609 7.44727 5.67285 7.51318 5.60693C7.71094 5.40918 7.99658 5.4165 8.20898 5.62891L10.4136 7.8335C10.4282 7.96533 10.4575 8.09717 10.5161 8.229L10.9189 9.20312C10.9336 9.23242 10.9336 9.26172 10.9116 9.27637C10.8896 9.30566 10.853 9.29834 10.8311 9.26904ZM13.0942 17.04C11.2412 18.8931 8.92676 18.8418 6.854 16.769L2.51074 12.4258C2.31299 12.228 2.30566 11.9644 2.49609 11.7666C2.68652 11.5762 2.96484 11.5762 3.15527 11.7739L5.82129 14.4399C6.04102 14.6597 6.37793 14.6377 6.58301 14.4399C6.78809 14.2275 6.81006 13.8906 6.59033 13.6709L2.59131 9.67188C2.39355 9.48145 2.38623 9.21045 2.57666 9.02002C2.76709 8.82959 3.04541 8.82959 3.24316 9.02734L6.97119 12.7554C7.19092 12.9751 7.52783 12.9531 7.72559 12.748C7.93066 12.543 7.95996 12.2061 7.74023 11.9863L3.35303 7.60645C3.15527 7.40869 3.14795 7.13037 3.33838 6.93994C3.52881 6.74951 3.80713 6.75684 4.00488 6.95459L8.32617 11.2832C8.53857 11.4956 8.87549 11.481 9.08057 11.2759C9.29297 11.0635 9.30762 10.7266 9.09521 10.5142L5.42578 6.84473C5.22803 6.64697 5.22803 6.37598 5.41846 6.18555C5.60889 5.99512 5.87988 5.99512 6.07764 6.19287L11.2339 11.3491C11.5269 11.6494 11.8857 11.6274 12.1274 11.3857C12.3325 11.1733 12.4204 10.895 12.2666 10.4995L11.3511 8.08984C11.2339 7.78955 11.3438 7.54785 11.5708 7.44531C11.8125 7.33545 12.0396 7.44531 12.186 7.76025L13.8779 11.3784C15.0059 13.7808 14.5957 15.5386 13.0942 17.04ZM14.918 10.8804L13.3579 7.57715C13.3359 7.51123 13.3213 7.44531 13.3213 7.37207C13.3213 7.15967 13.4971 6.94727 13.7827 6.94727C13.9658 6.94727 14.1489 7.07178 14.2441 7.28418L15.9067 10.8291C17.0273 13.2241 16.6245 14.9966 15.123 16.4834C15.0791 16.5273 15.0352 16.5713 14.9912 16.6079C15.9653 14.9526 15.9434 13.0337 14.918 10.8804ZM2.40088 20.0649C2.51807 20.0649 2.58398 19.9917 2.60596 19.8745C2.8623 18.439 2.85498 18.4097 4.34912 18.1313C4.47363 18.1094 4.53955 18.0435 4.53955 17.9263C4.53955 17.8018 4.47363 17.7358 4.35645 17.7212C2.85498 17.4136 2.88428 17.3916 2.60596 15.9707C2.58398 15.8535 2.51807 15.7876 2.40088 15.7876C2.28369 15.7876 2.21777 15.8535 2.1958 15.9707C1.91016 17.4062 1.9541 17.4282 0.452637 17.7212C0.335449 17.7358 0.262207 17.8018 0.262207 17.9263C0.262207 18.0435 0.335449 18.1094 0.452637 18.1313C1.9541 18.4316 1.93213 18.4463 2.1958 19.8818C2.21777 19.9917 2.28369 20.0649 2.40088 20.0649Z" fill="black"/>
</svg>
