<svg width="24" height="24" viewBox="0 0 24 24" fill="none" xmlns="http://www.w3.org/2000/svg">
<path d="M12.5132 3H11.96C8.82371 3 7.25556 3 6.05765 3.61036C5.00395 4.14725 4.14725 5.00395 3.61036 6.05765C3 7.25556 3 8.82371 3 11.96V12.5132C3 15.204 3 16.5494 3.45276 17.6059C4.01919 18.9276 5.07238 19.9808 6.39413 20.5472C7.4506 21 8.79601 21 11.4868 21C12.4951 21 12.9993 21 13.4769 20.902C14.0751 20.7792 14.6443 20.5434 15.1542 20.2072C15.5612 19.9388 15.9177 19.5823 16.6306 18.8694L18.8694 16.6306C19.5823 15.9177 19.9388 15.5612 20.2072 15.1542C20.5434 14.6443 20.7792 14.0751 20.902 13.4769C21 12.9993 21 12.4951 21 11.4868C21 8.79601 21 7.4506 20.5472 6.39413C19.9808 5.07238 18.9276 4.01919 17.6059 3.45276C16.5494 3 15.204 3 12.5132 3Z" stroke="black" stroke-width="1.66"/>
<path d="M21 11V11.8253C21 12.3853 21 12.6653 20.891 12.8793C20.7951 13.0674 20.6422 13.2204 20.454 13.3163C20.2401 13.4253 19.9601 13.4253 19.4 13.4253H16.6253C15.5052 13.4253 14.9451 13.4253 14.5173 13.6433C14.141 13.835 13.835 14.141 13.6433 14.5173C13.4253 14.9451 13.4253 15.5052 13.4253 16.6253V19.4C13.4253 19.96 13.4253 20.24 13.3163 20.454C13.2204 20.6421 13.0674 20.7951 12.8793 20.891C12.6653 21 12.3853 21 11.8253 21H11" stroke="black" stroke-width="1.66"/>
<ellipse cx="9.2" cy="9.59995" rx="1.2" ry="1.4" fill="black" stroke="black" stroke-width="0.33"/>
<ellipse cx="14.7996" cy="9.60019" rx="1.2" ry="1.4" fill="black" stroke="black" stroke-width="0.33"/>
<path d="M8.80078 14.4004C8.80078 14.4004 10.0008 16.0004 12.0008 16.0004C12.4627 16.0004 12.8846 15.9404 13.2665 15.8204" stroke="black" stroke-width="1.66" stroke-linecap="round"/>
</svg>
