<svg width="16" height="16" viewBox="0 0 16 16" fill="none" xmlns="http://www.w3.org/2000/svg">
<path fill-rule="evenodd" clip-rule="evenodd" d="M13.2982 1.18268C13.7177 0.763164 14.3979 0.763164 14.8174 1.18268C15.2369 1.60219 15.2369 2.28236 14.8174 2.70187L9.51928 7.99997L14.8174 13.2981C15.2369 13.7176 15.2369 14.3977 14.8174 14.8173C14.3979 15.2368 13.7177 15.2368 13.2982 14.8173L8.00009 9.51916L2.70199 14.8173C2.28248 15.2368 1.60231 15.2368 1.1828 14.8173C0.763286 14.3977 0.763286 13.7176 1.1828 13.2981L6.4809 7.99997L1.1828 2.70187C0.763287 2.28236 0.763287 1.60219 1.1828 1.18268C1.60231 0.763164 2.28248 0.763164 2.70199 1.18268L8.00009 6.48077L13.2982 1.18268Z" fill="white"/>
</svg>
