<svg width="24" height="24" viewBox="0 0 24 24" fill="none" xmlns="http://www.w3.org/2000/svg">
<path d="M7.55664 4.335C7.84623 4.335 8.08437 4.33202 8.31641 4.37992C8.5843 4.43527 8.83979 4.54115 9.06836 4.69144C9.26634 4.82169 9.43285 4.99246 9.6377 5.1973L10.2676 5.82719C10.5486 6.10823 10.6161 6.1699 10.6846 6.21195C10.7593 6.25772 10.8416 6.29111 10.9268 6.31156C11.005 6.3303 11.0961 6.335 11.4941 6.335H15C15.887 6.335 16.4609 6.32949 16.9482 6.46C18.213 6.7989 19.2012 7.78704 19.54 9.05179C19.6379 9.41722 19.6595 9.83137 19.6641 10.3897L19.665 11V12.5C19.665 12.8673 19.3673 13.1651 19 13.1651C18.6327 13.1651 18.335 12.8673 18.335 12.5V11.6651H3.66504V14.2002C3.66504 15.0512 3.66596 15.6494 3.7041 16.1162C3.74161 16.5754 3.81216 16.8491 3.91992 17.0606C4.14371 17.4995 4.50053 17.8563 4.93945 18.0801C5.15095 18.1879 5.42468 18.2584 5.88379 18.2959C6.35064 18.3341 6.94888 18.335 7.79981 18.335H12.5C12.8672 18.335 13.165 18.6328 13.165 19C13.165 19.3215 12.9369 19.5895 12.6338 19.6514L12.5 19.6651H7.79981C6.97081 19.6651 6.30896 19.6657 5.77539 19.6221C5.23404 19.5779 4.76616 19.4849 4.33594 19.2657C3.64642 18.9143 3.08574 18.3536 2.73438 17.6641C2.51516 17.2339 2.42216 16.766 2.37793 16.2246C2.33434 15.6911 2.33496 15.0292 2.33496 14.2002V9.55668C2.33496 8.84099 2.33448 8.26933 2.36719 7.80668C2.40037 7.33776 2.46998 6.9298 2.63477 6.54789C3.00512 5.68981 3.68977 5.00516 4.54785 4.6348C4.92976 4.47002 5.33774 4.40041 5.80664 4.36722C6.26929 4.33451 6.84098 4.335 7.55664 4.335ZM7.55664 5.66508C6.82202 5.66508 6.30524 5.66574 5.90039 5.69437C5.50202 5.72256 5.26219 5.77583 5.0752 5.85648C4.52851 6.09244 4.0924 6.52855 3.85645 7.07523C3.77579 7.26223 3.72253 7.50204 3.69434 7.90043C3.6657 8.30528 3.66504 8.82204 3.66504 9.55668V10.335H18.332C18.3266 9.84038 18.3097 9.59655 18.2559 9.39554C18.0399 8.58979 17.4102 7.9601 16.6045 7.74418C16.3289 7.67033 15.9728 7.66508 15 7.66508H11.4941C11.1591 7.66508 10.8831 7.6695 10.6162 7.60551C10.3953 7.55247 10.1839 7.46444 9.99023 7.34574C9.75626 7.20235 9.56404 7.00451 9.32715 6.76762L8.69727 6.13773C8.4545 5.89496 8.39582 5.84096 8.33789 5.80277C8.24983 5.74486 8.15106 5.70402 8.04785 5.68265C7.97977 5.66859 7.90072 5.66508 7.55664 5.66508Z" fill="black"/>
<path d="M19 14.335C19.3673 14.335 19.665 14.6327 19.665 15V18.335H23L23.1338 18.3486C23.4369 18.4106 23.665 18.6786 23.665 19C23.665 19.3214 23.4369 19.5894 23.1338 19.6514L23 19.665H19.665V23C19.665 23.3672 19.3672 23.665 19 23.665C18.6327 23.665 18.335 23.3673 18.335 23V19.665H15C14.6327 19.665 14.335 19.3673 14.335 19C14.335 18.6327 14.6327 18.335 15 18.335H18.335V15C18.335 14.6327 18.6327 14.335 19 14.335Z" fill="black"/>
</svg>
