<svg width="10" height="10" viewBox="0 0 10 10" fill="none" xmlns="http://www.w3.org/2000/svg">
<path fill-rule="evenodd" clip-rule="evenodd" d="M8.4131 0.413101C8.73724 0.0889662 9.26276 0.0889662 9.5869 0.413101C9.91103 0.737236 9.91103 1.26276 9.5869 1.5869L6.1738 5L9.5869 8.4131C9.91103 8.73724 9.91103 9.26276 9.5869 9.5869C9.26276 9.91103 8.73724 9.91103 8.4131 9.5869L5 6.1738L1.5869 9.5869C1.26276 9.91103 0.737237 9.91103 0.413101 9.5869C0.0889663 9.26276 0.0889663 8.73724 0.413101 8.4131L3.8262 5L0.413101 1.5869C0.0889662 1.26276 0.0889662 0.737237 0.413101 0.413101C0.737237 0.0889663 1.26276 0.0889663 1.5869 0.413101L5 3.8262L8.4131 0.413101Z" fill="black" style="mix-blend-mode:overlay"/>
<path fill-rule="evenodd" clip-rule="evenodd" d="M8.4131 0.413101C8.73724 0.0889662 9.26276 0.0889662 9.5869 0.413101C9.91103 0.737236 9.91103 1.26276 9.5869 1.5869L6.1738 5L9.5869 8.4131C9.91103 8.73724 9.91103 9.26276 9.5869 9.5869C9.26276 9.91103 8.73724 9.91103 8.4131 9.5869L5 6.1738L1.5869 9.5869C1.26276 9.91103 0.737237 9.91103 0.413101 9.5869C0.0889663 9.26276 0.0889663 8.73724 0.413101 8.4131L3.8262 5L0.413101 1.5869C0.0889662 1.26276 0.0889662 0.737237 0.413101 0.413101C0.737237 0.0889663 1.26276 0.0889663 1.5869 0.413101L5 3.8262L8.4131 0.413101Z" fill="black" fill-opacity="0.2"/>
</svg>
