<svg width="44" height="44" viewBox="0 0 44 44" fill="none" xmlns="http://www.w3.org/2000/svg">
<path d="M23.655 10.8335C23.655 9.91945 22.914 9.17847 22 9.17847C21.0859 9.17847 20.345 9.91945 20.345 10.8335V21.2896C20.345 22.211 20.736 23.0891 21.4209 23.7054L28.8689 30.4086C29.5483 31.0201 30.5948 30.965 31.2063 30.2856C31.8177 29.6062 31.7626 28.5598 31.0832 27.9483L23.655 21.2629V10.8335Z" fill="black"/>
<path fill-rule="evenodd" clip-rule="evenodd" d="M22 2C10.9543 2 2 10.9543 2 22C2 33.0457 10.9543 42 22 42C33.0457 42 42 33.0457 42 22C42 10.9543 33.0457 2 22 2ZM5.31007 22C5.31007 12.7824 12.7824 5.31007 22 5.31007C31.2176 5.31007 38.6899 12.7824 38.6899 22C38.6899 31.2176 31.2176 38.6899 22 38.6899C12.7824 38.6899 5.31007 31.2176 5.31007 22Z" fill="black"/>
</svg>
