<svg width="24" height="24" viewBox="0 0 24 24" fill="none" xmlns="http://www.w3.org/2000/svg">
<path fill-rule="evenodd" clip-rule="evenodd" d="M3.62922 12.0002C3.62922 7.37757 7.3766 3.6302 11.9992 3.6302C16.6218 3.6302 20.3692 7.37757 20.3692 12.0002C20.3692 16.6228 16.6218 20.3702 11.9992 20.3702C7.3766 20.3702 3.62922 16.6228 3.62922 12.0002ZM11.9992 1.9702C6.4598 1.9702 1.96922 6.46078 1.96922 12.0002C1.96922 17.5396 6.4598 22.0302 11.9992 22.0302C17.5386 22.0302 22.0292 17.5396 22.0292 12.0002C22.0292 6.46078 17.5386 1.9702 11.9992 1.9702ZM12.8292 6.4002C12.8292 5.9418 12.4576 5.5702 11.9992 5.5702C11.5408 5.5702 11.1692 5.9418 11.1692 6.4002V11.6439C11.1692 12.106 11.3653 12.5464 11.7088 12.8555L15.444 16.2171C15.7847 16.5238 16.3095 16.4962 16.6162 16.1554C16.9228 15.8147 16.8952 15.2899 16.5545 14.9833L12.8292 11.6305V6.4002Z" fill="black"/>
</svg>
