<?xml version="1.0" encoding="UTF-8"?>
<svg width="72px" height="72px" viewBox="0 0 72 72" version="1.1" xmlns="http://www.w3.org/2000/svg" xmlns:xlink="http://www.w3.org/1999/xlink">
    <title>Icon / Video Copy 13</title>
    <g id="Icon-/-Video-Copy-13" stroke="none" stroke-width="1" fill="none" fill-rule="evenodd">
        <path d="M28.9214873,41.7868781 L14.2382898,37.778549 C13.2560244,37.5104028 12.6771163,36.4967439 12.9452625,35.5144784 C13.1170949,34.8850266 13.6088381,34.3932834 14.2382898,34.221451 L28.9214873,30.2131219 C29.5510238,30.0412663 30.0428079,29.5494165 30.2145795,28.9198571 L34.2213862,14.2345211 C34.4894013,13.2522198 35.5029829,12.6731764 36.4852842,12.9411915 C37.1149283,13.1129862 37.6068191,13.604877 37.7786138,14.2345211 L41.7854205,28.9198571 C41.9571921,29.5494165 42.4489762,30.0412663 43.0785127,30.2131219 L57.7617102,34.221451 C58.7439756,34.4895972 59.3228837,35.5032561 59.0547375,36.4855216 C58.8829051,37.1149734 58.3911619,37.6067166 57.7617102,37.778549 L43.0785127,41.7868781 C42.4489762,41.9587337 41.9571921,42.4505835 41.7854205,43.0801429 L37.7786138,57.7654789 C37.5105987,58.7477802 36.4970171,59.3268236 35.5147158,59.0588085 C34.8850717,58.8870138 34.3931809,58.395123 34.2213862,57.7654789 L30.2145795,43.0801429 C30.0428079,42.4505835 29.5510238,41.9587337 28.9214873,41.7868781 Z" id="Star-Copy-3" fill="#FFFFFF"></path>
    </g>
</svg>